<svg id="graphics" xmlns="http://www.w3.org/2000/svg" viewBox="0 0 268.88 269.29"><title>asian-logo</title><path d="M25.71,235.06c-2.61-2.22-6.8-3.35-12.45-3.35H0v37.16H9V258.74h4.41c5.44,0,9.56-1.08,12.24-3.21s4.08-5.58,4.08-10.17S28.35,237.3,25.71,235.06Zm-6.53,14.33c-.89,1-2.63,1.49-5.2,1.49H9V239.52h4.2c2.57,0,4.47.42,5.66,1.24s1.71,2.16,1.71,4.13A6.66,6.66,0,0,1,19.18,249.39Z" fill="#4e5051"/><path d="M57.14,231.71l-16,37.16h9.54L54,261H68.68l3.38,7.84H81.6L65.54,231.71Zm8.11,21.35H57.44L61.37,244Z" fill="#4e5051"/><polygon points="106.69 231.71 97.74 231.71 97.74 268.87 122.17 268.87 122.17 260.81 106.69 260.81 106.69 231.71" fill="#4e5051"/><path d="M159.75,231.71h-8.4l-16.06,37.16h9.54l3.38-7.84h14.67l3.38,7.84h9.54L159.86,232Zm-.3,21.35h-7.81l3.93-9.06Z" fill="#4e5051"/><path d="M207.92,239.46a11.47,11.47,0,0,1,9.24,4.63l.31.39,5.62-6.37-.25-.28a19.69,19.69,0,0,0-15.28-7,19.13,19.13,0,0,0-13.83,5.52,19.63,19.63,0,0,0-.11,27.47,19.51,19.51,0,0,0,14.12,5.42c5.7,0,10.71-2.39,14.89-7.11l.26-.29-5.8-6-.3.38a11.61,11.61,0,0,1-9.44,4.57,9.75,9.75,0,0,1-7.13-2.94,10.66,10.66,0,0,1-2.94-7.84,10,10,0,0,1,3.11-7.74A10.77,10.77,0,0,1,207.92,239.46Z" fill="#4e5051"/><polygon points="250.22 260.86 250.22 254.17 266.49 254.17 266.49 246.41 250.22 246.41 250.22 239.78 268.31 239.78 268.31 231.71 241.27 231.71 241.27 268.87 268.88 268.87 268.88 260.86 250.22 260.86" fill="#4e5051"/><path d="M229.87,111a195,195,0,0,1-33.11-1.11v-5.41c4.62-3.69,14-12.16,15.38-21.23l1-6.55c-7.79-.09-21.39.32-39.47-5.5V53.76c9.61-9.71,9.53-14.82,10.36-20.14C159.93,25.07,152.66,18.83,134.78,0c-17.49,18.86-25.43,25.21-49.15,33.62.79,5.08.62,10.3,10.36,20.14V71.22C78,77,64.35,76.61,56.52,76.7l1,6.55C59,92.32,68.3,100.79,72.92,104.48v5.37A193.75,193.75,0,0,1,39.8,111l-7.49-.45,1.52,7.35c2.44,11.78,11.74,21.72,16,25.72v59.74H61.27c0-69.38,0-61.22,0-65-5.2-4.36-10.08-9.4-13.45-15.63,25.62.19,67.28-5.3,86.92-21.71,19.87,16.5,61.58,22,87.59,21.71-3.26,6.12-8.54,11.24-13.91,15.56v65h11.48V143.71c4.68-4.22,15-14.72,16.05-26.44l.62-6.68Zm-95-94.35c10.07,10.05,20.26,17.86,35,24a50.07,50.07,0,0,1-7.64,8.19V66.73A68.18,68.18,0,0,1,147.93,58c-4-3.29-10.22-11.69-13.61-16.12-4.51,7.3-8.19,16.14-26.85,24.82,0-17.75,0-14.67,0-17.95a50.26,50.26,0,0,1-7.64-8.19C113,35.14,123.74,27.81,134.86,16.65Zm50.41,82v9.59c-4.23-.74-8.07-1.53-11.58-2.37V93a116.7,116.7,0,0,1-11.49-4v13.62c-18.75-6.37-23.76-14-27.09-17.73-7,7-11,11.93-27.64,17.58V89A118.27,118.27,0,0,1,96,93v12.8c-3.77.93-7.65,1.72-11.58,2.41V98.66a57,57,0,0,1-12.28-11C94.05,85.79,120.68,77.11,135,61.26c14.2,16.12,41,24.54,62.52,26.42A56,56,0,0,1,185.27,98.66Z" fill="#ed1c24"/><path d="M229.87,111a195,195,0,0,1-33.11-1.11v-5.41C212.08,92.24,212,84.15,213.16,76.7c-7.79-.09-21.39.32-39.47-5.5V53.76c9.61-9.71,9.53-14.82,10.36-20.14C159.93,25.07,152.66,18.83,134.78,0c-.11.12-.06,16.79.08,16.65,10.07,10.05,20.26,17.86,35,24a50.07,50.07,0,0,1-7.64,8.19V66.73c-14.82-6.89-18.1-12-27.76-24.65,0,0,.38,19.39.57,19.18,14.2,16.12,41,24.54,62.52,26.42a56,56,0,0,1-12.26,11v9.59c-3.94-.69-7.82-1.48-11.58-2.4V93a116.7,116.7,0,0,1-11.49-4v13.54a77.09,77.09,0,0,1-15.53-7c-5.6-3.45-7.2-5.7-11.56-10.6,0,0-.47,16.25-.38,16.17,19.87,16.5,61.58,22,87.59,21.71-3.26,6.12-8.54,11.24-13.91,15.56v65h11.48V143.71c4.68-4.22,15-14.72,16.05-26.44l.62-6.68Z" fill="#be1e2d"/><path d="M72.92,204.14H84.41V129.56c-3.82.63-7.66,1.16-11.49,1.58Z" fill="#ed1c24"/><rect x="129.02" y="142.66" width="11.63" height="13.55" fill="#ed1c24"/><rect x="129.02" y="167.53" width="11.63" height="36.52" fill="#ed1c24"/><path d="M162.2,204.14h11.49V127.37c-3.94-.9-7.79-1.91-11.49-3.05Z" fill="#ed1c24"/><path d="M96,204.14h11.48v-79.9c-3.7,1.14-7.54,2.16-11.48,3.06Z" fill="#ed1c24"/><path d="M185.27,204.14h11.49V131.19c-3.84-.42-7.68-.94-11.49-1.56Z" fill="#ed1c24"/><rect x="134.44" y="142.66" width="6.21" height="13.55" fill="#be1e2d"/><rect x="134.44" y="167.53" width="6.21" height="36.52" fill="#be1e2d"/><path d="M162.2,204.14h11.49V127.37c-3.94-.9-7.79-1.91-11.49-3.05Z" fill="#be1e2d"/><path d="M185.27,204.14h11.49V131.19c-3.84-.42-7.68-.94-11.49-1.56Z" fill="#be1e2d"/></svg>