<svg width="0" height="0" class="hidden">
  <symbol xmlns="http://www.w3.org/2000/svg" viewBox="0 0 331.64 289.97" id="real-estate-logo">
    <title>real-estate-logo</title>
    <path d="M0 255.26c0-7.5 5.31-9 9.38-9 0 0 15.21.43 19 1v6.83H11.33c-3.07 0-3.07 1.71-3.07 3.3v6.74l17.45.62v6.8l-17.45.56v6.74c0 3.12 2 3.07 3.66 3.07h16.47v6.77c-3.34.45-18.42 1-18.42 1-3.85.17-10-.7-10-8.67zm33 1.83c0-8.56 5-11.09 11.66-11.15 6.21-.13 13.29.7 16.7 1.71v6.49c-3.78-.33-12.29-.59-14.43-.59-3.61-.08-5.7.17-5.7 4.19v2.11c0 3.42 1.31 4.16 4.66 4.16h6.82c8.47 0 10.21 6.68 10.21 11.45v2.88c0 9.81-6.11 11.63-12 11.63-7.37 0-12.2-.46-16.67-1.77v-6.5c2.36.24 9.56.65 15.05.65 2.48 0 5.31-.41 5.31-3.72v-2.32c0-2.46-.74-4-3.9-4h-6.59c-10.41 0-11.15-7.69-11.15-11.45zm31.94-10.8h31.93v7.61h-12v35.59h-8.28V253.9H64.94zm42.95 0h9.4l14 43.2h-8.79l-3.07-9.57h-14.12l-3.12 9.57h-8.88zm9.61 26.31l-4.86-15.42-5.19 15.42zm10.89-26.31h31.93v7.61h-12v35.59H140V253.9h-11.61zm35.4 8.97c0-7.5 5.31-9 9.38-9 0 0 15.21.43 19 1v6.83h-17.05c-3.07 0-3.07 1.71-3.07 3.3v6.74l17.44.62v6.8l-17.44.56v6.74c0 3.12 1.95 3.07 3.66 3.07h16.47v6.77c-3.35.45-18.42 1-18.42 1-3.85.17-10-.7-10-8.67zM195 268.9h18.53v7H195zm22.74-22.61h18.9c6.75 0 11.76 3.16 11.76 13.47 0 10.7-4.48 12-6.87 12.72l8.17 17h-9.29l-7.15-16.34-7.25-.83v17.17h-8.27zm18.09 19.54c2.88 0 4.25-.85 4.25-6.07 0-4.91-1.65-6.12-4.25-6.12H226v12.19zm18.3-19.54h8.27v43.2h-8.27zm13.8 10.8c0-8.56 5.08-11.06 11.69-11.15 6.21-.13 13.29.7 16.7 1.71v6.49c-3.77-.33-12.28-.59-14.43-.59-3.61-.08-5.69.17-5.69 4.19v2.11c0 3.42 1.31 4.16 4.65 4.16h6.83c8.46 0 10.21 6.68 10.21 11.45v2.88c0 9.81-6.11 11.63-11.95 11.63-7.38 0-12.21-.46-16.67-1.77v-6.5c2.36.24 9.55.65 15 .65 2.49 0 5.32-.41 5.32-3.72v-2.32c0-2.46-.75-4-3.9-4h-6.64c-10.42 0-11.16-7.69-11.16-11.45zm35.32-1.83c0-7.5 5.31-9 9.39-9 0 0 15.21.43 19 1v6.83h-17.06c-3.06 0-3.06 1.71-3.06 3.3v6.74l17.44.62v6.8l-17.44.56v6.74c0 3.12 1.94 3.07 3.65 3.07h16.47v6.77c-3.34.45-18.41 1-18.41 1-3.86.17-10-.7-10-8.67zm-160.51-62.92v-7.69h28.84V177h-28.84v-7.7h28.84v-7.69h-28.84v-7.69h28.84v-7.7h-28.84v-7.69h28.84v-7.7h-28.84v-7.73h28.84v-7.69h-28.84v-7.7h28.84V100h-28.84v-7.7h28.84v-7.67h-28.84v-7.69h28.84v-7.69h-28.84v-7.7h28.84v-7.69h-28.84v-7.7h28.84v-7.69h-28.84v-7.7h28.84v-7.69h-28.84v-7.69h28.84v-7.7h-28.84V0h-35.86v200.29a244.21 244.21 0 0054.58-7.95zm75.8-25.13v-5.08h11.67q3.84-2.48 7.58-5.09h-19.25V152h26.27c2-1.54 4.08-3.1 6.08-4.71v-.38h-32.35v-5.08h32.35v-5.08h-32.35v-5.09h32.35v-5.08h-32.35v-5.09h32.35v-5.08h-32.35v-5.08h32.35v-5.08h-32.35v-5.09h28.14L241.59 96h-23.05v-5h18l-5.08-5.08h-12.92v-5.14h7.8l-40.15-40.15v143.8A240.43 240.43 0 00222 167.21zM53.21 79.7h6.72v6.56H46.65l-6.56 6.56h19.84v6.56H33.54l-6 6v.59h32.39v6.56H27.58v6.56h32.35v6.56H27.58v6.56h32.35v6.56H27.58v6.55h32.35v6.56H27.58v6.56h32.35V165H27.58v6.55h32.35v6.56H27.58v6.56h32.35v6.56H32.31a248.65 248.65 0 0036.5 7.35c7.84 1 15.68 1.53 23.47 1.75V40.63z" fill="#00405c"></path>
    <path d="M312.59 187.13l-13.79-14.88c-84.31 61.17-196.11 71-288.7 22.64 92.57 33.73 193.41 11.88 261.47-52L257.78 128l62-4.59z" fill="#00405c"></path>
  </symbol>
  <symbol xmlns="http://www.w3.org/2000/svg" viewBox="0 0 268.88 269.29" id="asian-logo">
    <title>asian-logo</title>
    <path d="M25.71 235.06c-2.61-2.22-6.8-3.35-12.45-3.35H0v37.16h9v-10.13h4.41c5.44 0 9.56-1.08 12.24-3.21s4.08-5.58 4.08-10.17-1.38-8.06-4.02-10.3zm-6.53 14.33c-.89 1-2.63 1.49-5.2 1.49H9v-11.36h4.2c2.57 0 4.47.42 5.66 1.24s1.71 2.16 1.71 4.13a6.66 6.66 0 01-1.39 4.5zm37.96-17.68l-16 37.16h9.54L54 261h14.68l3.38 7.84h9.54l-16.06-37.13zm8.11 21.35h-7.81l3.93-9.06zm41.44-21.35h-8.95v37.16h24.43v-8.06h-15.48v-29.1zm53.06 0h-8.4l-16.06 37.16h9.54l3.38-7.84h14.67l3.38 7.84h9.54L159.86 232zm-.3 21.35h-7.81l3.93-9.06zm48.47-13.6a11.47 11.47 0 019.24 4.63l.31.39 5.62-6.37-.25-.28a19.69 19.69 0 00-15.28-7 19.13 19.13 0 00-13.83 5.52 19.63 19.63 0 00-.11 27.47 19.51 19.51 0 0014.12 5.42c5.7 0 10.71-2.39 14.89-7.11l.26-.29-5.8-6-.3.38a11.61 11.61 0 01-9.44 4.57 9.75 9.75 0 01-7.13-2.94 10.66 10.66 0 01-2.94-7.84 10 10 0 013.11-7.74 10.77 10.77 0 017.53-2.81zm42.3 21.4v-6.69h16.27v-7.76h-16.27v-6.63h18.09v-8.07h-27.04v37.16h27.61v-8.01h-18.66z" fill="#4e5051"></path>
    <path d="M229.87 111a195 195 0 01-33.11-1.11v-5.41c4.62-3.69 14-12.16 15.38-21.23l1-6.55c-7.79-.09-21.39.32-39.47-5.5V53.76c9.61-9.71 9.53-14.82 10.36-20.14-24.1-8.55-31.37-14.79-49.25-33.62-17.49 18.86-25.43 25.21-49.15 33.62.79 5.08.62 10.3 10.36 20.14v17.46C78 77 64.35 76.61 56.52 76.7l1 6.55c1.48 9.07 10.78 17.54 15.4 21.23v5.37A193.75 193.75 0 0139.8 111l-7.49-.45 1.52 7.35c2.44 11.78 11.74 21.72 16 25.72v59.74h11.44v-65c-5.2-4.36-10.08-9.4-13.45-15.63 25.62.19 67.28-5.3 86.92-21.71 19.87 16.5 61.58 22 87.59 21.71-3.26 6.12-8.54 11.24-13.91 15.56v65h11.48v-59.58c4.68-4.22 15-14.72 16.05-26.44l.62-6.68zm-95-94.35c10.07 10.05 20.26 17.86 35 24a50.07 50.07 0 01-7.64 8.19v17.89a68.18 68.18 0 01-14.3-8.73c-4-3.29-10.22-11.69-13.61-16.12-4.51 7.3-8.19 16.14-26.85 24.82V48.75a50.26 50.26 0 01-7.64-8.19c13.17-5.42 23.91-12.75 35.03-23.91zm50.41 82v9.59c-4.23-.74-8.07-1.53-11.58-2.37V93a116.7 116.7 0 01-11.49-4v13.62c-18.75-6.37-23.76-14-27.09-17.73-7 7-11 11.93-27.64 17.58V89A118.27 118.27 0 0196 93v12.8c-3.77.93-7.65 1.72-11.58 2.41v-9.55a57 57 0 01-12.28-11c21.91-1.87 48.54-10.55 62.86-26.4 14.2 16.12 41 24.54 62.52 26.42a56 56 0 01-12.25 10.98z" fill="#ed1c24"></path>
    <path d="M229.87 111a195 195 0 01-33.11-1.11v-5.41c15.32-12.24 15.24-20.33 16.4-27.78-7.79-.09-21.39.32-39.47-5.5V53.76c9.61-9.71 9.53-14.82 10.36-20.14-24.12-8.55-31.39-14.79-49.27-33.62-.11.12-.06 16.79.08 16.65 10.07 10.05 20.26 17.86 35 24a50.07 50.07 0 01-7.64 8.19v17.89c-14.82-6.89-18.1-12-27.76-24.65 0 0 .38 19.39.57 19.18 14.2 16.12 41 24.54 62.52 26.42a56 56 0 01-12.26 11v9.59c-3.94-.69-7.82-1.48-11.58-2.4V93a116.7 116.7 0 01-11.49-4v13.54a77.09 77.09 0 01-15.53-7c-5.6-3.45-7.2-5.7-11.56-10.6 0 0-.47 16.25-.38 16.17 19.87 16.5 61.58 22 87.59 21.71-3.26 6.12-8.54 11.24-13.91 15.56v65h11.48v-59.67c4.68-4.22 15-14.72 16.05-26.44l.62-6.68z" fill="#be1e2d"></path>
    <path d="M72.92 204.14h11.49v-74.58c-3.82.63-7.66 1.16-11.49 1.58zm56.1-61.48h11.63v13.55h-11.63zm0 24.87h11.63v36.52h-11.63zm33.18 36.61h11.49v-76.77c-3.94-.9-7.79-1.91-11.49-3.05zm-66.2 0h11.48v-79.9c-3.7 1.14-7.54 2.16-11.48 3.06zm89.27 0h11.49v-72.95c-3.84-.42-7.68-.94-11.49-1.56z" fill="#ed1c24"></path>
    <path fill="#be1e2d" d="M134.44 142.66h6.21v13.55h-6.21zm0 24.87h6.21v36.52h-6.21zm27.76 36.61h11.49v-76.77c-3.94-.9-7.79-1.91-11.49-3.05zm23.07 0h11.49v-72.95c-3.84-.42-7.68-.94-11.49-1.56z"></path>
  </symbol>
  <symbol xmlns="http://www.w3.org/2000/svg" viewBox="0 0 298.82 342.02" id="home-logo">
    <title>home-logo</title>
    <path d="M149.41 49.07l14.26 14.26a97.62 97.62 0 0132-9.56A449.66 449.66 0 00149.41 0a474.37 474.37 0 00-45.79 53.82 97.78 97.78 0 0131.53 9.51z" fill="#26a9e0"></path>
    <path d="M187 127.76a117.9 117.9 0 0112.35-6.63l-30.77-30.72A98 98 0 01187 127.76zm-87.48-6.64a118 118 0 0112.35 6.64 98 98 0 0118.37-37.35z" fill="#1f8dcd"></path>
    <path d="M168.58 90.41l-16.16-16.16-2.59-2.59-.42-.42-.42.42-2.59 2.58-16.16 16.17a98 98 0 00-18.37 37.35A118.18 118.18 0 01149.41 165 118.18 118.18 0 01187 127.76a98 98 0 00-18.42-37.35zM147 136.85h-15v-14.13h15zm0-19h-15v-8.72a7.78 7.78 0 017.78-7.78H147zm19.86 19h-15v-14.13h15zm0-19h-15v-16.5h7.2a7.78 7.78 0 017.78 7.78z" fill="#106eb5"></path>
    <path d="M187 127.76a98.59 98.59 0 01-14.12 78.89 79.74 79.74 0 0054.06-57.93l-27.64-27.59a117.9 117.9 0 00-12.3 6.63z" fill="#1259a5"></path>
    <path d="M226.35 112.34c-5.19-19.42-17.45-40.22-30.71-58.57a97.62 97.62 0 00-32 9.56l51.7 51.7 13.53 13.53a72.89 72.89 0 00-2.52-16.22zM187 127.76A118.18 118.18 0 00149.41 165 116.82 116.82 0 01166 208.39c2.33-.49 4.63-1 6.88-1.74A98.59 98.59 0 00187 127.76zm-83.38-73.94C90.29 72.3 77.89 93.16 72.57 112.36a71.42 71.42 0 00-2.65 16.19L83.45 115l51.7-51.7a97.78 97.78 0 00-31.53-9.48z" fill="#1f8dcd"></path>
    <path d="M111.87 127.76a118 118 0 00-12.35-6.64l-27.59 27.6A79.73 79.73 0 00126 206.65a98.56 98.56 0 01-14.13-78.89z" fill="#1259a5"></path>
    <path d="M111.87 127.76A98.56 98.56 0 00126 206.65c2.24.69 4.54 1.25 6.86 1.74A116.83 116.83 0 01149.41 165a118.18 118.18 0 00-37.54-37.24z" fill="#1f8dcd"></path>
    <path d="M132.86 208.39a78.65 78.65 0 0033.09 0A116.82 116.82 0 00149.41 165a116.83 116.83 0 00-16.55 43.39z" fill="#26a9e0"></path>
    <path d="M33.83 252.58a4.83 4.83 0 01.42-2.08 4.67 4.67 0 011.14-1.5 4.62 4.62 0 011.6-.91 5.75 5.75 0 011.86-.3 5.65 5.65 0 011.82.3 4.92 4.92 0 011.6.89 4.46 4.46 0 011.14 1.51 5 5 0 01.43 2.1v43.76a4.92 4.92 0 01-.43 2.1 4.46 4.46 0 01-1.14 1.55 4.58 4.58 0 01-1.62.89 5.81 5.81 0 01-1.84.3 5.65 5.65 0 01-1.82-.3 4.58 4.58 0 01-1.6-.89 4.46 4.46 0 01-1.14-1.51 4.92 4.92 0 01-.42-2.1v-18.9H10v18.9a4.77 4.77 0 01-.43 2.1A4.32 4.32 0 018.45 300a4.58 4.58 0 01-1.62.89 5.86 5.86 0 01-1.84.3 5.75 5.75 0 01-1.83-.3 4.76 4.76 0 01-1.6-.89 4.32 4.32 0 01-1.13-1.51 4.77 4.77 0 01-.43-2.1v-43.81a4.68 4.68 0 01.43-2.08 4.51 4.51 0 011.13-1.5 4.71 4.71 0 011.62-.91 5.86 5.86 0 011.84-.3 5.75 5.75 0 011.83.3 5 5 0 011.6.89 4.32 4.32 0 011.13 1.51 4.84 4.84 0 01.43 2.1v17h23.82zM59 274.5a37 37 0 011.67-11.41 24.56 24.56 0 014.94-8.83 22 22 0 018-5.72 28.25 28.25 0 0111-2 28.32 28.32 0 0111.09 2 22.08 22.08 0 018.06 5.72 24.36 24.36 0 014.91 8.83 39.94 39.94 0 010 22.79 24.44 24.44 0 01-4.91 8.83 22.06 22.06 0 01-8.06 5.71 28.31 28.31 0 01-11.09 2 28.25 28.25 0 01-11-2 22 22 0 01-8-5.71 24.65 24.65 0 01-4.94-8.83A36.71 36.71 0 0159 274.5zm10.53 0a36.09 36.09 0 00.88 8.24 19 19 0 002.73 6.51 13.2 13.2 0 004.73 4.28 15.89 15.89 0 0013.69 0 13.29 13.29 0 004.73-4.28 19.44 19.44 0 002.75-6.51 36.08 36.08 0 00.89-8.24 36.6 36.6 0 00-.87-8.21 19.4 19.4 0 00-2.74-6.53 13.33 13.33 0 00-4.74-4.31 15.79 15.79 0 00-13.73 0 13.13 13.13 0 00-4.73 4.31 19.57 19.57 0 00-2.71 6.53 36 36 0 00-.84 8.21zm88.14 14.59L172.75 255a23.12 23.12 0 011.7-3.51 9.69 9.69 0 011.83-2.24 5.62 5.62 0 012.1-1.17 9.3 9.3 0 012.59-.33 8.29 8.29 0 012.69.44 5.93 5.93 0 012.27 1.42 6.77 6.77 0 011.57 2.49 10.57 10.57 0 01.58 3.68v41.12a4.54 4.54 0 01-.36 1.88 4 4 0 01-.95 1.34 4.19 4.19 0 01-1.36.82 4.55 4.55 0 01-1.54.28 4.17 4.17 0 01-2.83-1.1 4 4 0 01-.95-1.34 4.71 4.71 0 01-.35-1.88v-39.59l-16.49 37.84a6.1 6.1 0 01-1 1.82 6.28 6.28 0 01-1.4 1.33 6 6 0 01-1.65.81 5.74 5.74 0 01-1.77.28 5.83 5.83 0 01-3.26-1 6.19 6.19 0 01-2.32-3.22l-16.45-37.62v39.35a4.71 4.71 0 01-.35 1.88 4.11 4.11 0 01-.95 1.34 4.32 4.32 0 01-1.34.82 4.5 4.5 0 01-1.53.28 4.4 4.4 0 01-1.52-.28 3.91 3.91 0 01-1.32-.82 4.09 4.09 0 01-.94-1.34 4.71 4.71 0 01-.35-1.88v-41.16a10.34 10.34 0 01.58-3.68 6.54 6.54 0 011.58-2.49 6.16 6.16 0 012.31-1.42 8.57 8.57 0 012.75-.44 9.11 9.11 0 012.61.35 6.15 6.15 0 012.14 1.19 9.33 9.33 0 011.84 2.25 25.08 25.08 0 011.71 3.54l14.81 34zM212 301.22a4.48 4.48 0 01-1.85-.39 5.13 5.13 0 01-1.54-1.05 5 5 0 01-1.08-1.52 4.37 4.37 0 01-.41-1.84v-43.91a4.94 4.94 0 01.35-1.81 4.68 4.68 0 011-1.54 4.81 4.81 0 011.5-1.06 4.46 4.46 0 011.86-.39H239a3.85 3.85 0 011.61.31 3.43 3.43 0 011.16.84 3.3 3.3 0 01.68 1.17 4.08 4.08 0 010 2.7 3.21 3.21 0 01-.68 1.19 3.43 3.43 0 01-1.16.84 3.85 3.85 0 01-1.61.31h-22.14v15.08h20.69a4 4 0 011.64.31 3.38 3.38 0 011.17.84 3.48 3.48 0 01.69 1.17 4.17 4.17 0 01.22 1.36 4 4 0 01-.24 1.34 3.59 3.59 0 01-.71 1.19 3.39 3.39 0 01-1.15.84 3.87 3.87 0 01-1.62.31h-20.69v16.34h22.92a4 4 0 011.62.31 3.72 3.72 0 011.16.84 3.3 3.3 0 01.68 1.17 4.08 4.08 0 010 2.7 3.13 3.13 0 01-.68 1.19 3.43 3.43 0 01-1.16.84 3.87 3.87 0 01-1.62.32zm55.75-40.08a5.73 5.73 0 001.21 3.72 10.34 10.34 0 003.22 2.55 26.34 26.34 0 004.61 1.86c1.74.54 3.53 1.07 5.36 1.62 2.36.72 4.55 1.5 6.59 2.34a21.55 21.55 0 015.26 3.07 13.47 13.47 0 013.52 4.3 13 13 0 011.28 6 14.32 14.32 0 01-1.52 6.68 14.64 14.64 0 01-4.28 5 20.2 20.2 0 01-6.63 3.16 31.48 31.48 0 01-8.59 1.1 36.21 36.21 0 01-6.72-.6 31.13 31.13 0 01-5.8-1.65 21.55 21.55 0 01-4.6-2.5 12.23 12.23 0 01-3.09-3.14 2.64 2.64 0 01-.29-1.27 3.48 3.48 0 01.29-1.37 5.38 5.38 0 01.77-1.29 4.25 4.25 0 011-.95 2.13 2.13 0 011.13-.37 2.44 2.44 0 011.29.41l1.28.82a26 26 0 002.74 1.54 24.53 24.53 0 003.38 1.36 29.34 29.34 0 004 1 26.18 26.18 0 004.52.37 21.25 21.25 0 004.43-.44 11.9 11.9 0 003.56-1.36 7 7 0 002.36-2.29 6.1 6.1 0 00.86-3.28 6.32 6.32 0 00-1.23-4 10.38 10.38 0 00-3.24-2.66 23.51 23.51 0 00-4.58-1.86q-2.56-.76-5.25-1.61l-2.38-.82c-.91-.33-1.84-.68-2.77-1.06s-1.81-.79-2.64-1.2a15.12 15.12 0 01-2-1.17q-6.8-3.4-6.8-11.49a13 13 0 011.55-6.38 14.33 14.33 0 014.26-4.76 19.79 19.79 0 016.4-3 32.25 32.25 0 0118.23.63 21 21 0 017.78 5 3.05 3.05 0 01.67 1.1 4.13 4.13 0 01.18 1.24 5 5 0 01-.18 1.31 4.13 4.13 0 01-.6 1.23 3.14 3.14 0 01-1.06.91 3.32 3.32 0 01-1.58.35 3.81 3.81 0 01-2.35-1.12 21.45 21.45 0 00-2.34-1.43 19.86 19.86 0 00-2.94-1.28 22.77 22.77 0 00-3.42-.91 20.27 20.27 0 00-7.76 0 12.8 12.8 0 00-3.53 1.23 7.48 7.48 0 00-2.57 2.16 5.15 5.15 0 00-.99 3.2zM16.12 341.6v-26h3.67l8.33 13.15a73.59 73.59 0 014.66 8.44h.08c-.31-3.47-.38-6.63-.38-10.68v-10.9h3.16v26h-3.4L24 328.41a82.08 82.08 0 01-4.86-8.68h-.11c.19 3.28.27 6.4.27 10.72v11.15zm32.47-8.18l-2.7 8.18h-3.47l8.83-26h4l8.87 26h-3.53l-2.78-8.18zm8.52-2.62l-2.54-7.48c-.58-1.7-1-3.24-1.35-4.75h-.08c-.38 1.55-.81 3.13-1.31 4.71l-2.54 7.52zm15.74-12.34h-7.91v-2.85h19.25v2.85h-8v23.14h-3.34zm20.47-2.85V331c0 5.83 2.59 8.29 6.06 8.29 3.86 0 6.32-2.54 6.32-8.29v-15.39h3.4v15.15c0 8-4.21 11.26-9.84 11.26-5.32 0-9.33-3-9.33-11.1v-15.31zm24.49.39a35.63 35.63 0 016.44-.54c3.59 0 5.9.66 7.52 2.12a6.49 6.49 0 012 4.94 6.82 6.82 0 01-4.9 6.63v.12c2 .69 3.2 2.54 3.82 5.24a40.63 40.63 0 002 7.14h-3.47a34.46 34.46 0 01-1.74-6.21c-.77-3.59-2.15-4.94-5.2-5.05h-3.17v11.21h-3.35zm3.35 11.84h3.44c3.59 0 5.86-2 5.86-4.93 0-3.36-2.43-4.82-6-4.86a13.58 13.58 0 00-3.32.31zm24.68 5.58l-2.7 8.18h-3.47l8.83-26h4.05l8.87 26h-3.58l-2.78-8.18zm8.53-2.62l-2.55-7.48c-.57-1.7-1-3.24-1.35-4.75h-.08c-.38 1.55-.81 3.13-1.31 4.71l-2.54 7.52zm13.76-15.19h3.36v23.17h11.11v2.82h-14.47zm31.7 21.9a11.83 11.83 0 006 1.7c3.43 0 5.43-1.81 5.43-4.44 0-2.43-1.38-3.82-4.9-5.17-4.24-1.5-6.86-3.7-6.86-7.36 0-4.05 3.36-7.06 8.41-7.06a11.91 11.91 0 015.75 1.27l-.93 2.74a10.39 10.39 0 00-4.94-1.23c-3.55 0-4.9 2.12-4.9 3.89 0 2.43 1.59 3.63 5.17 5 4.4 1.69 6.64 3.81 6.64 7.63 0 4-3 7.48-9.1 7.48a13.52 13.52 0 01-6.64-1.65zm27.3-19.05h-7.9v-2.85h19.24v2.85h-7.94v23.14h-3.4zm18.43 14.96l-2.7 8.18h-3.47l8.84-26h4.05l8.87 26h-3.59l-2.78-8.18zm8.53-2.62l-2.55-7.48c-.58-1.7-1-3.24-1.35-4.75h-.07c-.39 1.55-.81 3.13-1.32 4.71l-2.54 7.52zm16.5 10.8v-11l-8.21-15h3.82l3.66 7.17c1 2 1.77 3.55 2.58 5.36h.08c.73-1.7 1.62-3.39 2.62-5.36l3.74-7.17h3.82l-8.7 14.93v11.07z"></path>
  </symbol>
  <symbol xmlns="http://www.w3.org/2000/svg" viewBox="0 0 364.96 221.48" id="house-logo">
    <title>house-logo</title>
    <path d="M109.43 143.71h9.07v40.63h-9.07v-16H93.27v16h-9.06v-40.63h9.06v17h16.16zm53.24 35.02a22.15 22.15 0 01-30.34 0 21.27 21.27 0 010-29.94 22.15 22.15 0 0130.34 0 21.27 21.27 0 010 29.94zm-3.08-14.94a13.33 13.33 0 00-3.49-9.27 11.48 11.48 0 00-17.14 0A14 14 0 00139 173a11.54 11.54 0 0017.14 0 13.22 13.22 0 003.45-9.21zm27.66 10.05a7.43 7.43 0 006.1 2.82 7.35 7.35 0 006.08-2.82 12 12 0 002.24-7.7v-22.43h9.06v22.72q0 8.83-4.88 13.58a18.86 18.86 0 01-25 0q-4.92-4.77-4.91-13.55v-22.75H185v22.43a11.93 11.93 0 002.25 7.7zm42.4-22.02a3.51 3.51 0 00-1.31 2.85 3.19 3.19 0 001.6 2.81c1.06.7 3.52 1.53 7.38 2.47a20.8 20.8 0 019 4.28q3.19 2.85 3.2 8.31a11 11 0 01-4.1 8.86q-4.1 3.4-10.78 3.4a24.94 24.94 0 01-17.38-7.15l5.41-6.62q6.56 5.75 12.14 5.75a6.44 6.44 0 003.93-1.07 3.46 3.46 0 001.42-2.91 3.39 3.39 0 00-1.51-2.91 20.11 20.11 0 00-6-2.18q-7.09-1.68-10.37-4.39c-2.19-1.8-3.29-4.62-3.29-8.48a10.52 10.52 0 014.16-8.92 16.74 16.74 0 0110.37-3.14 24.93 24.93 0 018.14 1.4 21.66 21.66 0 017.09 3.95l-4.59 6.62a17.92 17.92 0 00-10.93-4 5.43 5.43 0 00-3.58 1.07zm56.87-8.11v8.08h-20.23v8.37h18.19v7.73h-18.19v8.43h20.87v8h-29.93v-40.61z" fill="#706f64"></path>
    <path d="M104.29 216.44v-19.11h2v19.11zM115 199a1.32 1.32 0 11-1.32-1.39A1.33 1.33 0 01115 199zm-2.3 17.46v-13.6h2v13.58zm11.36-.02l-5.38-13.58h2.14l4.32 11.49 4.3-11.49h2l-5.33 13.58zm22.45-6.01h-11.07a4.75 4.75 0 004.92 4.33 5.67 5.67 0 004.2-1.7l1.1 1.19a7.12 7.12 0 01-5.46 2.26 6.85 6.85 0 010-13.7c4.36-.02 6.52 3.02 6.31 7.62zm-1.8-1.64a4.23 4.23 0 00-4.53-4.25 4.58 4.58 0 00-4.74 4.25zm17.43-9.79a1.32 1.32 0 11-1.32-1.39 1.33 1.33 0 011.32 1.39zm-2.29 17.46v-13.6h2v13.58zm20.7-8.39v8.37h-2v-7.83a3.51 3.51 0 00-3.84-3.81 4.4 4.4 0 00-4.56 4.35v7.29h-2v-13.58h2v3c1-2.06 2.78-3 5.26-3.06 3.23-.01 5.14 2 5.14 5.27zm26.18 6.93c0 4-2.71 6.46-6.83 6.46a9.14 9.14 0 01-5.56-1.95l.93-1.55a7 7 0 004.56 1.73c3 0 4.89-1.81 4.89-4.64V213a5.35 5.35 0 01-5 2.83c-3.66 0-6.18-2.7-6.18-6.56s2.5-6.47 6.13-6.49a5.43 5.43 0 015.05 2.83v-2.76h2zm-2-5.67a4.65 4.65 0 10-4.64 4.79 4.54 4.54 0 004.63-4.77zm9.98-3.45a5.06 5.06 0 014.86-3.09v2a4.5 4.5 0 00-4.86 4.41v7.21h-2v-13.55h2zm20.67 4.55h-11.07a4.75 4.75 0 004.92 4.33 5.64 5.64 0 004.19-1.7l1.11 1.19a7.13 7.13 0 01-5.46 2.26 6.85 6.85 0 010-13.7c4.35-.02 6.52 3.02 6.31 7.62zm-1.8-1.64a4.23 4.23 0 00-4.53-4.25 4.58 4.58 0 00-4.74 4.25zm18.35 1.64h-11.07a4.75 4.75 0 004.92 4.33 5.67 5.67 0 004.2-1.7l1.1 1.19a7.12 7.12 0 01-5.46 2.26 6.85 6.85 0 010-13.7c4.38-.02 6.52 3.02 6.31 7.62zm-1.8-1.64a4.23 4.23 0 00-4.53-4.25 4.58 4.58 0 00-4.74 4.25zm19.08-.72v8.37h-2v-7.83a3.51 3.51 0 00-3.84-3.81 4.39 4.39 0 00-4.55 4.35v7.29h-2v-13.58h2v3c.95-2.06 2.78-3 5.25-3.06 3.23-.01 5.14 2 5.14 5.27z" fill="#a3a298"></path>
    <path fill="#5e8016" d="M125.27 73.41h20.43v19.24h-20.43z"></path>
    <path d="M309.19 120.66V98.4a18.27 18.27 0 004.82.66 18 18 0 009.34-33.32 14.75 14.75 0 00.53-3.9A14.92 14.92 0 00297.75 52a12.91 12.91 0 00-13.93 2.57l23.28 34.19h-20.47v8.62a12.59 12.59 0 0014.46 3.85v16.6q-11-3.67-23.26-6.72v-30h13.79l-39.73-61.94h-36.64v-8.39h1.36V0H200.7v10.7h2.77V42h-7.26V19.17h-64.63L90.32 81.08h7.6v27.74c-5.5 1.21-10.8 2.53-16 3.94a7.16 7.16 0 00-1.25-9.61 7.05 7.05 0 00-4.33-1.63 8.54 8.54 0 00-14.79-3.2 8.61 8.61 0 00-1.84 3.93A10.58 10.58 0 0045 112.41a8.65 8.65 0 00-.08 13.13A366.79 366.79 0 000 148.34c44.55-19.61 103.74-29.55 182.48-29.55S329.29 131 365 148.34a280.29 280.29 0 00-55.81-27.68zm-52.75-45.8v16.33h-15V74.86zm-29.22-27.22h19.49l-20.1 25.9v28.92c-6.56-.64-13.33-1.16-20.32-1.51V73.52zM107.11 74l29.14-43.22L165.4 74v26.72a386.7 386.7 0 00-58.29 6.3z" fill="#5e8016"></path>
  </symbol>
</svg>