<svg id="Layer_1" data-name="Layer 1" xmlns="http://www.w3.org/2000/svg" viewBox="0 0 298.82 342.02"><title>home-logo</title><path d="M149.41,49.07l14.26,14.26a97.62,97.62,0,0,1,32-9.56A449.66,449.66,0,0,0,149.41,0a474.37,474.37,0,0,0-45.79,53.82,97.78,97.78,0,0,1,31.53,9.51Z" fill="#26a9e0"/><path d="M187,127.76a117.9,117.9,0,0,1,12.35-6.63L168.58,90.41A98,98,0,0,1,187,127.76Z" fill="#1f8dcd"/><path d="M99.52,121.12a118,118,0,0,1,12.35,6.64,98,98,0,0,1,18.37-37.35Z" fill="#1f8dcd"/><path d="M168.58,90.41,152.42,74.25l-2.59-2.59-.42-.42-.42.42-2.59,2.58L130.24,90.41a98,98,0,0,0-18.37,37.35A118.18,118.18,0,0,1,149.41,165,118.18,118.18,0,0,1,187,127.76,98,98,0,0,0,168.58,90.41ZM147,136.85H132V122.72h15Zm0-19H132v-8.72a7.78,7.78,0,0,1,7.78-7.78H147Zm19.86,19h-15V122.72h15Zm0-19h-15v-16.5h7.2a7.78,7.78,0,0,1,7.78,7.78Z" fill="#106eb5"/><path d="M187,127.76a98.59,98.59,0,0,1-14.12,78.89,79.74,79.74,0,0,0,54.06-57.93L199.3,121.13A117.9,117.9,0,0,0,187,127.76Z" fill="#1259a5"/><path d="M226.35,112.34c-5.19-19.42-17.45-40.22-30.71-58.57a97.62,97.62,0,0,0-32,9.56l51.7,51.7,13.53,13.53A72.89,72.89,0,0,0,226.35,112.34Z" fill="#1f8dcd"/><path d="M187,127.76A118.18,118.18,0,0,0,149.41,165,116.82,116.82,0,0,1,166,208.39c2.33-.49,4.63-1,6.88-1.74A98.59,98.59,0,0,0,187,127.76Z" fill="#1f8dcd"/><path d="M103.62,53.82C90.29,72.3,77.89,93.16,72.57,112.36a71.42,71.42,0,0,0-2.65,16.19L83.45,115l51.7-51.7A97.78,97.78,0,0,0,103.62,53.82Z" fill="#1f8dcd"/><path d="M111.87,127.76a118,118,0,0,0-12.35-6.64l-27.59,27.6A79.73,79.73,0,0,0,126,206.65a98.56,98.56,0,0,1-14.13-78.89Z" fill="#1259a5"/><path d="M111.87,127.76A98.56,98.56,0,0,0,126,206.65c2.24.69,4.54,1.25,6.86,1.74A116.83,116.83,0,0,1,149.41,165,118.18,118.18,0,0,0,111.87,127.76Z" fill="#1f8dcd"/><path d="M132.86,208.39a78.65,78.65,0,0,0,33.09,0A116.82,116.82,0,0,0,149.41,165,116.83,116.83,0,0,0,132.86,208.39Z" fill="#26a9e0"/><path d="M33.83,252.58a4.83,4.83,0,0,1,.42-2.08A4.67,4.67,0,0,1,35.39,249a4.62,4.62,0,0,1,1.6-.91,5.75,5.75,0,0,1,1.86-.3,5.65,5.65,0,0,1,1.82.3,4.92,4.92,0,0,1,1.6.89,4.46,4.46,0,0,1,1.14,1.51,5,5,0,0,1,.43,2.1v43.76a4.92,4.92,0,0,1-.43,2.1A4.46,4.46,0,0,1,42.27,300a4.58,4.58,0,0,1-1.62.89,5.81,5.81,0,0,1-1.84.3,5.65,5.65,0,0,1-1.82-.3,4.58,4.58,0,0,1-1.6-.89,4.46,4.46,0,0,1-1.14-1.51,4.92,4.92,0,0,1-.42-2.1v-18.9H10v18.9a4.77,4.77,0,0,1-.43,2.1A4.32,4.32,0,0,1,8.45,300a4.58,4.58,0,0,1-1.62.89,5.86,5.86,0,0,1-1.84.3,5.75,5.75,0,0,1-1.83-.3,4.76,4.76,0,0,1-1.6-.89,4.32,4.32,0,0,1-1.13-1.51,4.77,4.77,0,0,1-.43-2.1V252.58a4.68,4.68,0,0,1,.43-2.08A4.51,4.51,0,0,1,1.56,249a4.71,4.71,0,0,1,1.62-.91,5.86,5.86,0,0,1,1.84-.3,5.75,5.75,0,0,1,1.83.3,5,5,0,0,1,1.6.89,4.32,4.32,0,0,1,1.13,1.51,4.84,4.84,0,0,1,.43,2.1v17H33.83Z"/><path d="M59,274.5a37,37,0,0,1,1.67-11.41,24.56,24.56,0,0,1,4.94-8.83,22,22,0,0,1,8-5.72,28.25,28.25,0,0,1,11-2,28.32,28.32,0,0,1,11.09,2,22.08,22.08,0,0,1,8.06,5.72,24.36,24.36,0,0,1,4.91,8.83,39.94,39.94,0,0,1,0,22.79,24.44,24.44,0,0,1-4.91,8.83,22.06,22.06,0,0,1-8.06,5.71,28.31,28.31,0,0,1-11.09,2,28.25,28.25,0,0,1-11-2,22,22,0,0,1-8-5.71,24.65,24.65,0,0,1-4.94-8.83A36.71,36.71,0,0,1,59,274.5Zm10.53,0a36.09,36.09,0,0,0,.88,8.24,19,19,0,0,0,2.73,6.51,13.2,13.2,0,0,0,4.73,4.28,15.89,15.89,0,0,0,13.69,0,13.29,13.29,0,0,0,4.73-4.28,19.44,19.44,0,0,0,2.75-6.51,36.08,36.08,0,0,0,.89-8.24,36.6,36.6,0,0,0-.87-8.21,19.4,19.4,0,0,0-2.74-6.53,13.33,13.33,0,0,0-4.74-4.31,15.79,15.79,0,0,0-13.73,0,13.13,13.13,0,0,0-4.73,4.31,19.57,19.57,0,0,0-2.71,6.53A36,36,0,0,0,69.57,274.5Z"/><path d="M157.67,289.09,172.75,255a23.12,23.12,0,0,1,1.7-3.51,9.69,9.69,0,0,1,1.83-2.24,5.62,5.62,0,0,1,2.1-1.17,9.3,9.3,0,0,1,2.59-.33,8.29,8.29,0,0,1,2.69.44,5.93,5.93,0,0,1,2.27,1.42,6.77,6.77,0,0,1,1.57,2.49,10.57,10.57,0,0,1,.58,3.68V296.9a4.54,4.54,0,0,1-.36,1.88,4,4,0,0,1-.95,1.34,4.19,4.19,0,0,1-1.36.82,4.55,4.55,0,0,1-1.54.28,4.17,4.17,0,0,1-2.83-1.1,4,4,0,0,1-.95-1.34,4.71,4.71,0,0,1-.35-1.88V257.31l-16.49,37.84a6.1,6.1,0,0,1-1,1.82,6.28,6.28,0,0,1-1.4,1.33,6,6,0,0,1-1.65.81,5.74,5.74,0,0,1-1.77.28,5.83,5.83,0,0,1-3.26-1,6.19,6.19,0,0,1-2.32-3.22l-16.45-37.62V296.9a4.71,4.71,0,0,1-.35,1.88,4.11,4.11,0,0,1-.95,1.34,4.32,4.32,0,0,1-1.34.82,4.5,4.5,0,0,1-1.53.28,4.4,4.4,0,0,1-1.52-.28,3.91,3.91,0,0,1-1.32-.82,4.09,4.09,0,0,1-.94-1.34,4.71,4.71,0,0,1-.35-1.88V255.74a10.34,10.34,0,0,1,.58-3.68,6.54,6.54,0,0,1,1.58-2.49,6.16,6.16,0,0,1,2.31-1.42,8.57,8.57,0,0,1,2.75-.44,9.11,9.11,0,0,1,2.61.35,6.15,6.15,0,0,1,2.14,1.19,9.33,9.33,0,0,1,1.84,2.25,25.08,25.08,0,0,1,1.71,3.54l14.81,34Z"/><path d="M212,301.22a4.48,4.48,0,0,1-1.85-.39,5.13,5.13,0,0,1-1.54-1.05,5,5,0,0,1-1.08-1.52,4.37,4.37,0,0,1-.41-1.84V252.51a4.94,4.94,0,0,1,.35-1.81,4.68,4.68,0,0,1,1-1.54,4.81,4.81,0,0,1,1.5-1.06,4.46,4.46,0,0,1,1.86-.39H239a3.85,3.85,0,0,1,1.61.31,3.43,3.43,0,0,1,1.16.84,3.3,3.3,0,0,1,.68,1.17,4.08,4.08,0,0,1,0,2.7,3.21,3.21,0,0,1-.68,1.19,3.43,3.43,0,0,1-1.16.84,3.85,3.85,0,0,1-1.61.31H216.86v15.08h20.69a4,4,0,0,1,1.64.31,3.38,3.38,0,0,1,1.17.84,3.48,3.48,0,0,1,.69,1.17,4.17,4.17,0,0,1,.22,1.36,4,4,0,0,1-.24,1.34,3.59,3.59,0,0,1-.71,1.19,3.39,3.39,0,0,1-1.15.84,3.87,3.87,0,0,1-1.62.31H216.86v16.34h22.92a4,4,0,0,1,1.62.31,3.72,3.72,0,0,1,1.16.84,3.3,3.3,0,0,1,.68,1.17,4.08,4.08,0,0,1,0,2.7,3.13,3.13,0,0,1-.68,1.19,3.43,3.43,0,0,1-1.16.84,3.87,3.87,0,0,1-1.62.32Z"/><path d="M267.75,261.14a5.73,5.73,0,0,0,1.21,3.72,10.34,10.34,0,0,0,3.22,2.55,26.34,26.34,0,0,0,4.61,1.86c1.74.54,3.53,1.07,5.36,1.62,2.36.72,4.55,1.5,6.59,2.34A21.55,21.55,0,0,1,294,276.3a13.47,13.47,0,0,1,3.52,4.3,13,13,0,0,1,1.28,6,14.32,14.32,0,0,1-1.52,6.68,14.64,14.64,0,0,1-4.28,5,20.2,20.2,0,0,1-6.63,3.16,31.48,31.48,0,0,1-8.59,1.1,36.21,36.21,0,0,1-6.72-.6,31.13,31.13,0,0,1-5.8-1.65,21.55,21.55,0,0,1-4.6-2.5,12.23,12.23,0,0,1-3.09-3.14,2.64,2.64,0,0,1-.29-1.27,3.48,3.48,0,0,1,.29-1.37,5.38,5.38,0,0,1,.77-1.29,4.25,4.25,0,0,1,1-.95,2.13,2.13,0,0,1,1.13-.37,2.44,2.44,0,0,1,1.29.41l1.28.82a26,26,0,0,0,2.74,1.54,24.53,24.53,0,0,0,3.38,1.36,29.34,29.34,0,0,0,4,1,26.18,26.18,0,0,0,4.52.37,21.25,21.25,0,0,0,4.43-.44,11.9,11.9,0,0,0,3.56-1.36,7,7,0,0,0,2.36-2.29,6.1,6.1,0,0,0,.86-3.28,6.32,6.32,0,0,0-1.23-4,10.38,10.38,0,0,0-3.24-2.66,23.51,23.51,0,0,0-4.58-1.86q-2.56-.76-5.25-1.61l-2.38-.82c-.91-.33-1.84-.68-2.77-1.06s-1.81-.79-2.64-1.2a15.12,15.12,0,0,1-2-1.17Q258,269.75,258,261.66a13,13,0,0,1,1.55-6.38,14.33,14.33,0,0,1,4.26-4.76,19.79,19.79,0,0,1,6.4-3,32.25,32.25,0,0,1,18.23.63,21,21,0,0,1,7.78,5,3.05,3.05,0,0,1,.67,1.1,4.13,4.13,0,0,1,.18,1.24,5,5,0,0,1-.18,1.31,4.13,4.13,0,0,1-.6,1.23,3.14,3.14,0,0,1-1.06.91,3.32,3.32,0,0,1-1.58.35,3.81,3.81,0,0,1-2.35-1.12,21.45,21.45,0,0,0-2.34-1.43,19.86,19.86,0,0,0-2.94-1.28,22.77,22.77,0,0,0-3.42-.91,20.27,20.27,0,0,0-7.76,0,12.8,12.8,0,0,0-3.53,1.23,7.48,7.48,0,0,0-2.57,2.16A5.15,5.15,0,0,0,267.75,261.14Z"/><path d="M16.12,341.6v-26h3.67l8.33,13.15a73.59,73.59,0,0,1,4.66,8.44l.08,0c-.31-3.47-.38-6.63-.38-10.68V315.61h3.16v26h-3.4L24,328.41a82.08,82.08,0,0,1-4.86-8.68l-.11,0c.19,3.28.27,6.4.27,10.72V341.6Z"/><path d="M48.59,333.42l-2.7,8.18H42.42l8.83-26h4l8.87,26H60.59l-2.78-8.18Zm8.52-2.62-2.54-7.48c-.58-1.7-1-3.24-1.35-4.75h-.08c-.38,1.55-.81,3.13-1.31,4.71l-2.54,7.52Z"/><path d="M72.85,318.46H64.94v-2.85H84.19v2.85h-8V341.6H72.85Z"/><path d="M93.32,315.61V331c0,5.83,2.59,8.29,6.06,8.29,3.86,0,6.32-2.54,6.32-8.29V315.61h3.4v15.15c0,8-4.21,11.26-9.84,11.26-5.32,0-9.33-3-9.33-11.1V315.61Z"/><path d="M117.81,316a35.63,35.63,0,0,1,6.44-.54c3.59,0,5.9.66,7.52,2.12a6.49,6.49,0,0,1,2,4.94,6.82,6.82,0,0,1-4.9,6.63v.12c2,.69,3.2,2.54,3.82,5.24a40.63,40.63,0,0,0,2,7.14h-3.47a34.46,34.46,0,0,1-1.74-6.21c-.77-3.59-2.15-4.94-5.2-5.05h-3.17V341.6h-3.35Zm3.35,11.84h3.44c3.59,0,5.86-2,5.86-4.93,0-3.36-2.43-4.82-6-4.86a13.58,13.58,0,0,0-3.32.31Z"/><path d="M145.84,333.42l-2.7,8.18h-3.47l8.83-26h4.05l8.87,26h-3.58l-2.78-8.18Zm8.53-2.62-2.55-7.48c-.57-1.7-1-3.24-1.35-4.75h-.08c-.38,1.55-.81,3.13-1.31,4.71l-2.54,7.52Z"/><path d="M168.13,315.61h3.36v23.17H182.6v2.82H168.13Z"/><path d="M199.83,337.51a11.83,11.83,0,0,0,6,1.7c3.43,0,5.43-1.81,5.43-4.44,0-2.43-1.38-3.82-4.9-5.17-4.24-1.5-6.86-3.7-6.86-7.36,0-4.05,3.36-7.06,8.41-7.06a11.91,11.91,0,0,1,5.75,1.27l-.93,2.74a10.39,10.39,0,0,0-4.94-1.23c-3.55,0-4.9,2.12-4.9,3.89,0,2.43,1.59,3.63,5.17,5,4.4,1.69,6.64,3.81,6.64,7.63,0,4-3,7.48-9.1,7.48a13.52,13.52,0,0,1-6.64-1.65Z"/><path d="M227.13,318.46h-7.9v-2.85h19.24v2.85h-7.94V341.6h-3.4Z"/><path d="M245.56,333.42l-2.7,8.18h-3.47l8.84-26h4.05l8.87,26h-3.59l-2.78-8.18Zm8.53-2.62-2.55-7.48c-.58-1.7-1-3.24-1.35-4.75h-.07c-.39,1.55-.81,3.13-1.32,4.71l-2.54,7.52Z"/><path d="M270.59,341.6v-11l-8.21-15h3.82l3.66,7.17c1,2,1.77,3.55,2.58,5.36h.08c.73-1.7,1.62-3.39,2.62-5.36l3.74-7.17h3.82L274,330.53V341.6Z"/></svg>