<svg id="graphics" xmlns="http://www.w3.org/2000/svg" viewBox="0 0 364.96 221.48"><title>house-logo</title><path d="M109.43,143.71h9.07v40.63h-9.07v-16H93.27v16H84.21V143.71h9.06v17h16.16Z" fill="#706f64"/><path d="M162.67,178.73a22.15,22.15,0,0,1-30.34,0,21.27,21.27,0,0,1,0-29.94,22.15,22.15,0,0,1,30.34,0,21.27,21.27,0,0,1,0,29.94Zm-3.08-14.94a13.33,13.33,0,0,0-3.49-9.27,11.48,11.48,0,0,0-17.14,0A14,14,0,0,0,139,173a11.54,11.54,0,0,0,17.14,0A13.22,13.22,0,0,0,159.59,163.79Z" fill="#706f64"/><path d="M187.25,173.84a7.43,7.43,0,0,0,6.1,2.82,7.35,7.35,0,0,0,6.08-2.82,12,12,0,0,0,2.24-7.7V143.71h9.06v22.72q0,8.83-4.88,13.58a18.86,18.86,0,0,1-25,0q-4.92-4.77-4.91-13.55V143.71H185v22.43A11.93,11.93,0,0,0,187.25,173.84Z" fill="#706f64"/><path d="M229.65,151.82a3.51,3.51,0,0,0-1.31,2.85,3.19,3.19,0,0,0,1.6,2.81c1.06.7,3.52,1.53,7.38,2.47a20.8,20.8,0,0,1,9,4.28q3.19,2.85,3.2,8.31a11,11,0,0,1-4.1,8.86q-4.1,3.4-10.78,3.4a24.94,24.94,0,0,1-17.38-7.15l5.41-6.62q6.56,5.75,12.14,5.75a6.44,6.44,0,0,0,3.93-1.07,3.46,3.46,0,0,0,1.42-2.91,3.39,3.39,0,0,0-1.51-2.91,20.11,20.11,0,0,0-6-2.18q-7.09-1.68-10.37-4.39c-2.19-1.8-3.29-4.62-3.29-8.48a10.52,10.52,0,0,1,4.16-8.92,16.74,16.74,0,0,1,10.37-3.14,24.93,24.93,0,0,1,8.14,1.4,21.66,21.66,0,0,1,7.09,3.95l-4.59,6.62a17.92,17.92,0,0,0-10.93-4A5.43,5.43,0,0,0,229.65,151.82Z" fill="#706f64"/><path d="M286.52,143.71v8.08H266.29v8.37h18.19v7.73H266.29v8.43h20.87v8H257.23V143.71Z" fill="#706f64"/><path d="M104.29,216.44V197.33h2v19.11Z" fill="#a3a298"/><path d="M115,199a1.32,1.32,0,1,1-1.32-1.39A1.33,1.33,0,0,1,115,199Zm-2.3,17.46V202.86h2v13.58Z" fill="#a3a298"/><path d="M124.06,216.44l-5.38-13.58h2.14l4.32,11.49,4.3-11.49h2l-5.33,13.58Z" fill="#a3a298"/><path d="M146.51,210.43H135.44a4.75,4.75,0,0,0,4.92,4.33,5.67,5.67,0,0,0,4.2-1.7l1.1,1.19a7.12,7.12,0,0,1-5.46,2.26,6.85,6.85,0,0,1,0-13.7C144.56,202.79,146.72,205.83,146.51,210.43Zm-1.8-1.64a4.23,4.23,0,0,0-4.53-4.25,4.58,4.58,0,0,0-4.74,4.25Z" fill="#a3a298"/><path d="M162.14,199a1.32,1.32,0,1,1-1.32-1.39A1.33,1.33,0,0,1,162.14,199Zm-2.29,17.46V202.86h2v13.58Z" fill="#a3a298"/><path d="M180.55,208.07v8.37h-2v-7.83a3.51,3.51,0,0,0-3.84-3.81,4.4,4.4,0,0,0-4.56,4.35v7.29h-2V202.86h2v3c1-2.06,2.78-3,5.26-3.06C178.64,202.79,180.55,204.8,180.55,208.07Z" fill="#a3a298"/><path d="M206.73,215c0,4-2.71,6.46-6.83,6.46a9.14,9.14,0,0,1-5.56-1.95l.93-1.55a7,7,0,0,0,4.56,1.73c3,0,4.89-1.81,4.89-4.64V213a5.35,5.35,0,0,1-5,2.83c-3.66,0-6.18-2.7-6.18-6.56s2.5-6.47,6.13-6.49a5.43,5.43,0,0,1,5.05,2.83v-2.76h2Zm-2-5.67a4.65,4.65,0,1,0-4.64,4.79A4.54,4.54,0,0,0,204.72,209.35Z" fill="#a3a298"/><path d="M214.71,205.88a5.06,5.06,0,0,1,4.86-3.09v2a4.5,4.5,0,0,0-4.86,4.41v7.21h-2V202.86h2Z" fill="#a3a298"/><path d="M235.38,210.43H224.31a4.75,4.75,0,0,0,4.92,4.33,5.64,5.64,0,0,0,4.19-1.7l1.11,1.19a7.13,7.13,0,0,1-5.46,2.26,6.85,6.85,0,0,1,0-13.7C233.42,202.79,235.59,205.83,235.38,210.43Zm-1.8-1.64a4.23,4.23,0,0,0-4.53-4.25,4.58,4.58,0,0,0-4.74,4.25Z" fill="#a3a298"/><path d="M251.93,210.43H240.86a4.75,4.75,0,0,0,4.92,4.33,5.67,5.67,0,0,0,4.2-1.7l1.1,1.19a7.12,7.12,0,0,1-5.46,2.26,6.85,6.85,0,0,1,0-13.7C250,202.79,252.14,205.83,251.93,210.43Zm-1.8-1.64a4.23,4.23,0,0,0-4.53-4.25,4.58,4.58,0,0,0-4.74,4.25Z" fill="#a3a298"/><path d="M269.21,208.07v8.37h-2v-7.83a3.51,3.51,0,0,0-3.84-3.81,4.39,4.39,0,0,0-4.55,4.35v7.29h-2V202.86h2v3c.95-2.06,2.78-3,5.25-3.06C267.3,202.79,269.21,204.8,269.21,208.07Z" fill="#a3a298"/><rect x="125.27" y="73.41" width="20.43" height="19.24" fill="#5e8016"/><path d="M309.19,120.66V98.4a18.27,18.27,0,0,0,4.82.66,18,18,0,0,0,9.34-33.32,14.75,14.75,0,0,0,.53-3.9A14.92,14.92,0,0,0,297.75,52a12.91,12.91,0,0,0-13.93,2.57L307.1,88.76H286.63v8.62a12.59,12.59,0,0,0,14.46,3.85v16.6q-11-3.67-23.26-6.72v-30h13.79v0L251.89,19.17H215.25V10.78h1.36V0H200.7V10.7h2.77V42h-7.26V19.17H131.58L90.32,81.08h7.6v27.74c-5.5,1.21-10.8,2.53-16,3.94a7.16,7.16,0,0,0-1.25-9.61,7.05,7.05,0,0,0-4.33-1.63,8.54,8.54,0,0,0-14.79-3.2,8.61,8.61,0,0,0-1.84,3.93A10.58,10.58,0,0,0,45,112.41a8.65,8.65,0,0,0-.08,13.13A366.79,366.79,0,0,0,0,148.34c44.55-19.61,103.74-29.55,182.48-29.55S329.29,131,365,148.34A280.29,280.29,0,0,0,309.19,120.66Zm-52.75-45.8V91.19h-15V74.86ZM227.22,47.64h19.49l-20.1,25.9v28.92c-6.56-.64-13.33-1.16-20.32-1.51V73.52ZM107.11,74l29.14-43.22L165.4,74v26.72a386.7,386.7,0,0,0-58.29,6.3Z" fill="#5e8016"/></svg>