<svg width="0" height="0" class="hidden">
  <symbol xmlns="http://www.w3.org/2000/svg" viewBox="0 0 566.93 137.35" id="paypal">
    <title>paypal-seeklogo.com</title>
    <path d="M49.47 32.33h38.74c20.8 0 28.63 10.53 27.42 26C113.63 83.87 98.19 98 77.71 98H67.37c-2.81 0-4.7 1.86-5.46 6.9l-4.39 29.3c-.29 1.9-1.29 3-2.79 3.15H30.39c-2.29 0-3.1-1.75-2.5-5.54l14.84-93.93c.58-3.76 2.64-5.55 6.74-5.55zm168.19-1.74c13.07 0 25.13 7.09 23.48 24.76-2 21-13.25 32.62-31 32.67h-15.51c-2.23 0-3.31 1.82-3.89 5.55l-3 19.07c-.45 2.88-1.93 4.3-4.11 4.3H169.2c-2.3 0-3.1-1.47-2.59-4.76l11.91-76.43c.59-3.76 2-5.16 4.57-5.16h34.54zm-23.5 40.92h11.75c7.35-.28 12.23-5.37 12.72-14.55.3-5.67-3.53-9.73-9.62-9.7l-11.06.05-3.79 24.2zm86.21 39.58c1.32-1.2 2.66-1.82 2.47-.34l-.47 3.54c-.24 1.85.49 2.83 2.21 2.83h12.82c2.16 0 3.21-.87 3.74-4.21l7.9-49.58c.4-2.49-.21-3.71-2.1-3.71h-14.1c-1.27 0-1.89.71-2.22 2.65l-.52 3.05c-.27 1.59-1 1.87-1.68.27-2.39-5.66-8.49-8.2-17-8-19.77.41-33.1 15.42-34.53 34.66-1.1 14.88 9.56 26.57 23.62 26.57 10.2 0 14.76-3 19.9-7.7zm-10.74-7.63c-8.51 0-14.44-6.79-13.21-15.11s9.19-15.11 17.7-15.11 14.44 6.79 13.21 15.11-9.18 15.11-17.7 15.11zm64.5-44h-13c-2.68 0-3.77 2-2.92 4.46l16.14 47.26-15.83 22.49c-1.33 1.88-.3 3.59 1.57 3.59h14.61a4.47 4.47 0 004.34-2.13l49.64-71.2c1.53-2.19.81-4.49-1.7-4.49h-13.83c-2.37 0-3.32.94-4.68 2.91l-20.7 30-9.25-30.07c-.54-1.82-1.89-2.82-4.38-2.82zm106.19-28.87c13.07 0 25.13 7.09 23.48 24.76-2 21-13.25 32.62-31 32.67h-15.5c-2.23 0-3.31 1.82-3.89 5.55l-3 19.07c-.45 2.88-1.93 4.3-4.11 4.3h-14.43c-2.3 0-3.1-1.47-2.59-4.76l11.93-76.45c.59-3.76 2-5.16 4.57-5.16h34.54zm-23.5 40.92h11.75c7.35-.28 12.23-5.37 12.72-14.55.3-5.67-3.53-9.73-9.62-9.7l-11.06.05-3.79 24.2zm86.21 39.58c1.32-1.2 2.66-1.82 2.47-.34l-.47 3.54c-.24 1.85.49 2.83 2.21 2.83h12.82c2.16 0 3.21-.87 3.74-4.21l7.9-49.58c.4-2.49-.21-3.71-2.1-3.71h-14.08c-1.27 0-1.89.71-2.22 2.65l-.52 3.05c-.27 1.59-1 1.87-1.68.27-2.39-5.66-8.49-8.2-17-8-19.77.41-33.1 15.42-34.53 34.66-1.1 14.88 9.56 26.57 23.62 26.57 10.2 0 14.76-3 19.9-7.7zm-10.73-7.63c-8.51 0-14.44-6.79-13.21-15.11s9.19-15.11 17.7-15.11 14.44 6.79 13.21 15.11-9.19 15.11-17.7 15.11zm59.13 13.74h-14.8a1.75 1.75 0 01-1.81-2l13-82.36a2.55 2.55 0 012.46-2h14.8a1.75 1.75 0 011.81 2l-13 82.36a2.55 2.55 0 01-2.46 2.02z"></path>
    <path d="M25.24 0h38.78C74.94 0 87.9.35 96.56 8c5.79 5.11 8.83 13.24 8.13 22-2.38 29.61-20.09 46.2-43.85 46.2H41.72c-3.26 0-5.41 2.16-6.33 8l-5.34 34c-.35 2.2-1.3 3.5-3 3.66H3.12c-2.65 0-3.59-2-2.9-6.42L17.42 6.46C18.11 2.08 20.52 0 25.24 0z"></path>
    <path d="M35.95 80.75l6.77-42.87c.59-3.76 2.65-5.56 6.75-5.56h38.74c6.41 0 11.6 1 15.66 2.85-3.89 26.36-20.94 41-43.26 41H41.52c-2.56.01-4.44 1.29-5.57 4.58z" fill="#172c70" fill-rule="evenodd"></path>
  </symbol>
  <symbol xmlns="http://www.w3.org/2000/svg" viewBox="0 0 282 92.638" id="visa">
    <path d="M184.19.983c-22.429 0-38.184 11.924-38.323 28.974-.142 12.631 11.267 19.674 19.848 23.872 8.853 4.292 11.81 7.05 11.781 10.89-.088 5.884-7.084 8.565-13.585 8.565-9.063 0-13.895-1.323-21.322-4.59l-2.945-1.4-3.172 19.652c5.303 2.445 15.095 4.564 25.275 4.675 23.801 0 39.287-11.787 39.471-29.987.094-10.018-5.962-17.6-19.056-23.86-7.904-4.07-12.792-6.77-12.719-10.893.006-3.644 4.101-7.55 12.991-7.55 7.425-.125 12.764 1.58 16.968 3.375l2.022 1.009 3.085-19.036c-4.48-1.77-11.55-3.695-20.32-3.695zm-70.41 1.532L99.594 90.323h22.665l14.194-87.81h-22.67zM80.575 2.6L58.381 62.444l-2.366-12.16c-5.527-14.911-17.492-30.552-31.426-36.891l20.302 76.846 24-.011L104.581 2.6H80.575zm164.57.006c-5.43 0-9.5 1.547-11.897 7.288l-33.657 80.458h23.813s3.893-10.83 4.774-13.201c2.599 0 25.727.05 29.027.05.701 3.061 2.76 13.15 2.76 13.15h21.056L262.66 2.606h-17.515zm1.602 23.673l1.51 7.57s4.358 20.95 5.267 25.338h-18.822c1.883-5.038 9.032-24.544 9.032-24.544-.14.239 1.86-5.079 3.013-8.365z" fill="#0023a0"></path>
    <path d="M37.798 2.554H1.23l-.213 1.51c28.431 7.272 47.188 25.128 54.998 46.243L48.068 9.95c-1.366-5.55-5.345-7.2-10.27-7.396" fill="#ffab00"></path>
  </symbol>
  <symbol xmlns="http://www.w3.org/2000/svg" preserveAspectRatio="xMidYMid" viewBox="0 0 256 199" id="mastercard">
    <path d="M46.54 198.011V184.84c0-5.05-3.074-8.342-8.343-8.342-2.634 0-5.488.878-7.464 3.732-1.536-2.415-3.731-3.732-7.024-3.732-2.196 0-4.39.658-6.147 3.073v-2.634h-4.61v21.074h4.61v-11.635c0-3.731 1.976-5.488 5.05-5.488 3.072 0 4.61 1.976 4.61 5.488v11.635h4.61v-11.635c0-3.731 2.194-5.488 5.048-5.488 3.074 0 4.61 1.976 4.61 5.488v11.635h5.05zm68.271-21.074h-7.463v-6.366h-4.61v6.366h-4.171v4.17h4.17v9.66c0 4.83 1.976 7.683 7.245 7.683 1.976 0 4.17-.658 5.708-1.536l-1.318-3.952c-1.317.878-2.853 1.098-3.951 1.098-2.195 0-3.073-1.317-3.073-3.513v-9.44h7.463v-4.17zm39.076-.44c-2.634 0-4.39 1.318-5.488 3.074v-2.634h-4.61v21.074h4.61v-11.854c0-3.512 1.536-5.488 4.39-5.488.878 0 1.976.22 2.854.439l1.317-4.39c-.878-.22-2.195-.22-3.073-.22zm-59.052 2.196c-2.196-1.537-5.269-2.195-8.562-2.195-5.268 0-8.78 2.634-8.78 6.805 0 3.513 2.634 5.488 7.244 6.147l2.195.22c2.415.438 3.732 1.097 3.732 2.195 0 1.536-1.756 2.634-4.83 2.634-3.073 0-5.488-1.098-7.025-2.195l-2.195 3.512c2.415 1.756 5.708 2.634 9 2.634 6.147 0 9.66-2.853 9.66-6.805 0-3.732-2.854-5.708-7.245-6.366l-2.195-.22c-1.976-.22-3.512-.658-3.512-1.975 0-1.537 1.536-2.415 3.951-2.415 2.635 0 5.269 1.097 6.586 1.756l1.976-3.732zm122.495-2.195c-2.635 0-4.391 1.317-5.489 3.073v-2.634h-4.61v21.074h4.61v-11.854c0-3.512 1.537-5.488 4.39-5.488.879 0 1.977.22 2.855.439l1.317-4.39c-.878-.22-2.195-.22-3.073-.22zm-58.833 10.976c0 6.366 4.39 10.976 11.196 10.976 3.073 0 5.268-.658 7.463-2.414l-2.195-3.732c-1.756 1.317-3.512 1.975-5.488 1.975-3.732 0-6.366-2.634-6.366-6.805 0-3.951 2.634-6.586 6.366-6.805 1.976 0 3.732.658 5.488 1.976l2.195-3.732c-2.195-1.757-4.39-2.415-7.463-2.415-6.806 0-11.196 4.61-11.196 10.976zm42.588 0v-10.537h-4.61v2.634c-1.537-1.975-3.732-3.073-6.586-3.073-5.927 0-10.537 4.61-10.537 10.976 0 6.366 4.61 10.976 10.537 10.976 3.073 0 5.269-1.097 6.586-3.073v2.634h4.61v-10.537zm-16.904 0c0-3.732 2.415-6.805 6.366-6.805 3.732 0 6.367 2.854 6.367 6.805 0 3.732-2.635 6.805-6.367 6.805-3.951-.22-6.366-3.073-6.366-6.805zm-55.1-10.976c-6.147 0-10.538 4.39-10.538 10.976 0 6.586 4.39 10.976 10.757 10.976 3.073 0 6.147-.878 8.562-2.853l-2.196-3.293c-1.756 1.317-3.951 2.195-6.146 2.195-2.854 0-5.708-1.317-6.367-5.05h15.587v-1.755c.22-6.806-3.732-11.196-9.66-11.196zm0 3.951c2.853 0 4.83 1.757 5.268 5.05h-10.976c.439-2.854 2.415-5.05 5.708-5.05zm114.372 7.025v-18.879h-4.61v10.976c-1.537-1.975-3.732-3.073-6.586-3.073-5.927 0-10.537 4.61-10.537 10.976 0 6.366 4.61 10.976 10.537 10.976 3.074 0 5.269-1.097 6.586-3.073v2.634h4.61v-10.537zm-16.903 0c0-3.732 2.414-6.805 6.366-6.805 3.732 0 6.366 2.854 6.366 6.805 0 3.732-2.634 6.805-6.366 6.805-3.952-.22-6.366-3.073-6.366-6.805zm-154.107 0v-10.537h-4.61v2.634c-1.537-1.975-3.732-3.073-6.586-3.073-5.927 0-10.537 4.61-10.537 10.976 0 6.366 4.61 10.976 10.537 10.976 3.074 0 5.269-1.097 6.586-3.073v2.634h4.61v-10.537zm-17.123 0c0-3.732 2.415-6.805 6.366-6.805 3.732 0 6.367 2.854 6.367 6.805 0 3.732-2.635 6.805-6.367 6.805-3.951-.22-6.366-3.073-6.366-6.805z"></path>
    <path fill="#FF5F00" d="M93.298 16.903h69.15v124.251h-69.15z"></path>
    <path d="M97.689 79.029c0-25.245 11.854-47.637 30.074-62.126C114.373 6.366 97.47 0 79.03 0 35.343 0 0 35.343 0 79.029c0 43.685 35.343 79.029 79.029 79.029 18.44 0 35.343-6.366 48.734-16.904-18.22-14.269-30.074-36.88-30.074-62.125z" fill="#EB001B"></path>
    <path d="M255.746 79.029c0 43.685-35.343 79.029-79.029 79.029-18.44 0-35.343-6.366-48.734-16.904 18.44-14.488 30.075-36.88 30.075-62.125 0-25.245-11.855-47.637-30.075-62.126C141.373 6.366 158.277 0 176.717 0c43.686 0 79.03 35.563 79.03 79.029z" fill="#F79E1B"></path>
  </symbol>
</svg>