<svg id="Objects" xmlns="http://www.w3.org/2000/svg" viewBox="0 0 331.64 289.97"><title>real-estate-logo</title><path d="M0,255.26c0-7.5,5.31-9,9.38-9,0,0,15.21.43,19,1v6.83H11.33c-3.07,0-3.07,1.71-3.07,3.3v6.74l17.45.62v6.8l-17.45.56v6.74c0,3.12,2,3.07,3.66,3.07H28.39v6.77c-3.34.45-18.42,1-18.42,1-3.85.17-10-.7-10-8.67Z" fill="#00405c"/><path d="M33,257.09C33,248.53,38,246,44.66,245.94c6.21-.13,13.29.7,16.7,1.71v6.49c-3.78-.33-12.29-.59-14.43-.59-3.61-.08-5.7.17-5.7,4.19v2.11c0,3.42,1.31,4.16,4.66,4.16h6.82c8.47,0,10.21,6.68,10.21,11.45v2.88c0,9.81-6.11,11.63-12,11.63-7.37,0-12.2-.46-16.67-1.77v-6.5c2.36.24,9.56.65,15.05.65,2.48,0,5.31-.41,5.31-3.72v-2.32c0-2.46-.74-4-3.9-4H44.12c-10.41,0-11.15-7.69-11.15-11.45Z" fill="#00405c"/><path d="M64.94,246.29H96.87v7.61h-12v35.59H76.59V253.9H64.94Z" fill="#00405c"/><path d="M107.89,246.29h9.4l14,43.2h-8.79l-3.07-9.57H105.31l-3.12,9.57H93.31Zm9.61,26.31-4.86-15.42-5.19,15.42Z" fill="#00405c"/><path d="M128.39,246.29h31.93v7.61h-12v35.59H140V253.9H128.39Z" fill="#00405c"/><path d="M163.79,255.26c0-7.5,5.31-9,9.38-9,0,0,15.21.43,19,1v6.83H175.12c-3.07,0-3.07,1.71-3.07,3.3v6.74l17.44.62v6.8l-17.44.56v6.74c0,3.12,1.95,3.07,3.66,3.07h16.47v6.77c-3.35.45-18.42,1-18.42,1-3.85.17-10-.7-10-8.67Z" fill="#00405c"/><path d="M195,268.9h18.53v7H195Z" fill="#00405c"/><path d="M217.74,246.29h18.9c6.75,0,11.76,3.16,11.76,13.47,0,10.7-4.48,12-6.87,12.72l8.17,17h-9.29l-7.15-16.34-7.25-.83v17.17h-8.27Zm18.09,19.54c2.88,0,4.25-.85,4.25-6.07,0-4.91-1.65-6.12-4.25-6.12H226v12.19Z" fill="#00405c"/><path d="M254.13,246.29h8.27v43.2h-8.27Z" fill="#00405c"/><path d="M267.93,257.09c0-8.56,5.08-11.06,11.69-11.15,6.21-.13,13.29.7,16.7,1.71v6.49c-3.77-.33-12.28-.59-14.43-.59-3.61-.08-5.69.17-5.69,4.19v2.11c0,3.42,1.31,4.16,4.65,4.16h6.83c8.46,0,10.21,6.68,10.21,11.45v2.88c0,9.81-6.11,11.63-11.95,11.63-7.38,0-12.21-.46-16.67-1.77v-6.5c2.36.24,9.55.65,15,.65,2.49,0,5.32-.41,5.32-3.72v-2.32c0-2.46-.75-4-3.9-4h-6.64c-10.42,0-11.16-7.69-11.16-11.45Z" fill="#00405c"/><path d="M303.25,255.26c0-7.5,5.31-9,9.39-9,0,0,15.21.43,19,1v6.83H314.58c-3.06,0-3.06,1.71-3.06,3.3v6.74l17.44.62v6.8l-17.44.56v6.74c0,3.12,1.94,3.07,3.65,3.07h16.47v6.77c-3.34.45-18.41,1-18.41,1-3.86.17-10-.7-10-8.67Z" fill="#00405c"/><path d="M142.74,192.34v-7.69h28.84V177H142.74v-7.7h28.84v-7.69H142.74v-7.69h28.84v-7.7H142.74v-7.69h28.84v-7.7H142.74V123.1h28.84v-7.69H142.74v-7.7h28.84V100H142.74v-7.7h28.84V84.63H142.74V76.94h28.84V69.25H142.74v-7.7h28.84V53.86H142.74v-7.7h28.84V38.47H142.74v-7.7h28.84V23.08H142.74V15.39h28.84V7.69H142.74V0H106.88V200.29a244.21,244.21,0,0,0,54.58-7.95Z" fill="#00405c"/><path d="M218.54,167.21v-5.08h11.67q3.84-2.48,7.58-5.09H218.54V152h26.27c2-1.54,4.08-3.1,6.08-4.71v-.38H218.54v-5.08h32.35v-5.08H218.54v-5.09h32.35v-5.08H218.54v-5.09h32.35v-5.08H218.54v-5.08h32.35v-5.08H218.54v-5.09h28.14L241.59,96H218.54V91h18l-5.08-5.08H218.54V80.78h7.8L186.19,40.63v143.8A240.43,240.43,0,0,0,222,167.21Z" fill="#00405c"/><path d="M53.21,79.7h6.72v6.56H46.65l-6.56,6.56H59.93v6.56H33.54l-6,6v.59H59.93v6.56H27.58v6.56H59.93v6.56H27.58v6.56H59.93v6.56H27.58v6.55H59.93v6.56H27.58v6.56H59.93V165H27.58v6.55H59.93v6.56H27.58v6.56H59.93v6.56H32.31a248.65,248.65,0,0,0,36.5,7.35c7.84,1,15.68,1.53,23.47,1.75V40.63Z" fill="#00405c"/><path d="M312.59,187.13,298.8,172.25c-84.31,61.17-196.11,71-288.7,22.64h0c92.57,33.73,193.41,11.88,261.47-52L257.78,128l62-4.59Z" fill="#00405c"/></svg>