<svg width="0" height="0" class="hidden">
  <symbol aria-hidden="true" xmlns="http://www.w3.org/2000/svg" overflow="hidden" viewBox="0 0 undefined undefined" id="sprite">
    <defs>
      <symbol id="icon-verified" viewBox="0 0 24 24">
        <path d="M23.016 12l-2.438-2.813.328-3.656-3.609-.844-1.875-3.188L12 2.952 8.578 1.499 6.703 4.687l-3.609.797.328 3.703L.984 12l2.438 2.813-.328 3.656 3.609.844 1.875 3.188L12 21.048l3.422 1.453 1.875-3.188 3.609-.844-.328-3.656zm-12.938 4.734L6.281 12.89l1.5-1.453 2.297 2.344 5.859-5.906 1.5 1.5z"></path>
      </symbol>
      <symbol id="icon-groups" viewBox="0 0 24 24">
        <path d="M12 12.75q1.219 0 2.297.258t1.922.633 1.313 1.125.469 1.594v1.641h-12v-1.594q0-.891.469-1.641t1.313-1.125 1.922-.633 2.297-.258zm-8.016.234q.844 0 1.43-.586T6 11.015q0-.844-.586-1.43t-1.43-.586q-.797 0-1.383.586t-.586 1.43q0 .797.586 1.383t1.383.586zm1.125 1.125q-.234-.047-.516-.07t-.609-.023q-.75 0-1.43.141t-1.336.422q-.563.234-.891.75t-.328 1.125v1.547h4.5v-1.594q0-1.219.609-2.297zm14.907-1.125q.797 0 1.383-.586t.586-1.383q0-.844-.586-1.43t-1.383-.586q-.844 0-1.43.586T18 11.015q0 .797.586 1.383t1.43.586zM24 16.453q0-.609-.328-1.125t-.891-.75q-.656-.281-1.336-.422t-1.43-.141q-.328 0-.609.023t-.516.07q.609 1.078.609 2.297v1.594h4.5v-1.547zM12 6q.844 0 1.523.398t1.078 1.078.398 1.523-.398 1.523-1.078 1.078-1.523.398-1.523-.398-1.078-1.078-.398-1.523.398-1.523 1.078-1.078T12 6z"></path>
      </symbol>
      <symbol id="icon-pool" viewBox="0 0 24 24">
        <path d="M14.016 5.484q0-1.031.727-1.758t1.758-.727 1.758.727.727 1.758-.727 1.781-1.758.75-1.758-.75-.727-1.781zM8.672 12q-.563 0-1.172-.375-.188-.141-.75-.375l3.234-3.234L9 6.985q-1.5-1.5-3.984-1.5V3.001q1.922 0 3.141.445t2.344 1.57l6.422 6.375q-.281.188-.422.234-.609.375-1.172.375-.516 0-1.125-.375-1.031-.609-2.203-.609t-2.203.609Q9.189 12 8.673 12zm13.312 4.5q-1.078 0-2.156-.656-.516-.328-1.172-.328-.609 0-1.125.328-1.078.656-2.203.656-1.078 0-2.156-.656-.516-.328-1.172-.328-.609 0-1.125.328-1.078.656-2.203.656-1.078 0-2.156-.656-.516-.328-1.172-.328-.609 0-1.125.328-1.078.656-2.203.656v-2.016q.609 0 1.125-.328 1.078-.656 2.203-.656 1.078 0 2.156.656.516.328 1.172.328.609 0 1.125-.328Q10.875 13.5 12 13.5q1.078 0 2.156.656.516.328 1.172.328.609 0 1.125-.328 1.078-.656 2.203-.656 1.078 0 2.156.656.516.328 1.172.328V16.5zm0 4.5q-1.078 0-2.156-.656-.516-.328-1.172-.328-.609 0-1.125.328-1.078.656-2.203.656-1.078 0-2.156-.656-.516-.328-1.172-.328-.609 0-1.125.328Q9.797 21 8.672 21t-2.203-.656q-.516-.328-1.125-.328-.656 0-1.172.328Q3.094 21 2.016 21v-2.016q.609 0 1.125-.328Q4.219 18 5.344 18q1.078 0 2.156.656.516.328 1.172.328.609 0 1.125-.328Q10.875 18 12 18t2.203.656q.516.328 1.125.328.656 0 1.172-.328Q17.578 18 18.656 18q1.125 0 2.203.656.516.328 1.125.328V21z"></path>
      </symbol>
      <symbol id="icon-crop_free" viewBox="0 0 24 24">
        <path d="M18.984 3q.797 0 1.406.609t.609 1.406v3.984h-2.016V5.015h-3.984V2.999h3.984zm0 15.984V15H21v3.984q0 .797-.609 1.406t-1.406.609h-3.984v-2.016h3.984zM5.016 15v3.984H9V21H5.016q-.797 0-1.406-.609t-.609-1.406v-3.984h2.016zM3 5.016q0-.797.609-1.406t1.406-.609h3.984v2.016H5.015v3.984H2.999V5.017z"></path>
      </symbol>
      <symbol id="icon-shield" viewBox="0 0 20 20">
        <path d="M19 11a7.505 7.505 0 01-3.47 5.922l-.03.018L10 20l-5.5-3.06c-2.009-1.276-3.358-3.437-3.499-5.92L1 11V3c3.38 0 6.5-1.12 9-3 2.5 1.89 5.62 3 9 3v8zm-9 1.08l2.92 2.04-1.03-3.41 2.84-2.15-3.56-.08L10 5.12 8.83 8.48l-3.56.08L8.1 10.7l-1.03 3.4L10 12.09z"></path>
      </symbol>
      <symbol id="icon-twitter" viewBox="0 0 20 20">
        <path d="M17.316 6.246c.008.162.011.326.011.488 0 4.99-3.797 10.742-10.74 10.742-2.133 0-4.116-.625-5.787-1.697a7.577 7.577 0 005.588-1.562 3.779 3.779 0 01-3.526-2.621 3.858 3.858 0 001.705-.065 3.779 3.779 0 01-3.028-3.703v-.047a3.766 3.766 0 001.71.473 3.775 3.775 0 01-1.168-5.041 10.716 10.716 0 007.781 3.945 3.813 3.813 0 01-.097-.861 3.773 3.773 0 013.774-3.773 3.77 3.77 0 012.756 1.191 7.602 7.602 0 002.397-.916 3.789 3.789 0 01-1.66 2.088 7.55 7.55 0 002.168-.594 7.623 7.623 0 01-1.884 1.953z"></path>
      </symbol>
      <symbol id="icon-chevron-right" viewBox="0 0 20 20">
        <path d="M9.163 4.516c.418.408 4.502 4.695 4.502 4.695a1.095 1.095 0 010 1.576s-4.084 4.289-4.502 4.695c-.418.408-1.17.436-1.615 0-.446-.434-.481-1.041 0-1.574L11.295 10 7.548 6.092c-.481-.533-.446-1.141 0-1.576s1.197-.409 1.615 0z"></path>
      </symbol>
      <symbol id="icon-chevron-left" viewBox="0 0 20 20">
        <path d="M12.452 4.516c.446.436.481 1.043 0 1.576L8.705 10l3.747 3.908c.481.533.446 1.141 0 1.574-.445.436-1.197.408-1.615 0-.418-.406-4.502-4.695-4.502-4.695a1.095 1.095 0 010-1.576s4.084-4.287 4.502-4.695 1.17-.436 1.615 0z"></path>
      </symbol>
      <symbol id="icon-mail" viewBox="0 0 20 20">
        <path d="M1.574 5.286l7.5 4.029c.252.135.578.199.906.199.328 0 .654-.064.906-.199l7.5-4.029c.489-.263.951-1.286.054-1.286H1.521c-.897 0-.435 1.023.053 1.286zm17.039 2.203l-7.727 4.027c-.34.178-.578.199-.906.199s-.566-.021-.906-.199-7.133-3.739-7.688-4.028C.996 7.284 1 7.523 1 7.707V15c0 .42.566 1 1 1h16c.434 0 1-.58 1-1V7.708c0-.184.004-.423-.387-.219z"></path>
      </symbol>
      <symbol id="icon-building" viewBox="0 0 22 28">
        <path d="M21 0c.547 0 1 .453 1 1v26c0 .547-.453 1-1 1H1c-.547 0-1-.453-1-1V1c0-.547.453-1 1-1h20zM8 4.5v1c0 .281.219.5.5.5h1c.281 0 .5-.219.5-.5v-1c0-.281-.219-.5-.5-.5h-1c-.281 0-.5.219-.5.5zm0 4v1c0 .281.219.5.5.5h1c.281 0 .5-.219.5-.5v-1c0-.281-.219-.5-.5-.5h-1c-.281 0-.5.219-.5.5zm0 4v1c0 .281.219.5.5.5h1c.281 0 .5-.219.5-.5v-1c0-.281-.219-.5-.5-.5h-1c-.281 0-.5.219-.5.5zm0 4v1c0 .281.219.5.5.5h1c.281 0 .5-.219.5-.5v-1c0-.281-.219-.5-.5-.5h-1c-.281 0-.5.219-.5.5zm-2 5v-1c0-.281-.219-.5-.5-.5h-1c-.281 0-.5.219-.5.5v1c0 .281.219.5.5.5h1c.281 0 .5-.219.5-.5zm0-4v-1c0-.281-.219-.5-.5-.5h-1c-.281 0-.5.219-.5.5v1c0 .281.219.5.5.5h1c.281 0 .5-.219.5-.5zm0-4v-1c0-.281-.219-.5-.5-.5h-1c-.281 0-.5.219-.5.5v1c0 .281.219.5.5.5h1c.281 0 .5-.219.5-.5zm0-4v-1c0-.281-.219-.5-.5-.5h-1c-.281 0-.5.219-.5.5v1c0 .281.219.5.5.5h1c.281 0 .5-.219.5-.5zm0-4v-1c0-.281-.219-.5-.5-.5h-1c-.281 0-.5.219-.5.5v1c0 .281.219.5.5.5h1c.281 0 .5-.219.5-.5zm8 20v-3c0-.281-.219-.5-.5-.5h-5c-.281 0-.5.219-.5.5v3c0 .281.219.5.5.5h5c.281 0 .5-.219.5-.5zm0-8v-1c0-.281-.219-.5-.5-.5h-1c-.281 0-.5.219-.5.5v1c0 .281.219.5.5.5h1c.281 0 .5-.219.5-.5zm0-4v-1c0-.281-.219-.5-.5-.5h-1c-.281 0-.5.219-.5.5v1c0 .281.219.5.5.5h1c.281 0 .5-.219.5-.5zm0-4v-1c0-.281-.219-.5-.5-.5h-1c-.281 0-.5.219-.5.5v1c0 .281.219.5.5.5h1c.281 0 .5-.219.5-.5zm0-4v-1c0-.281-.219-.5-.5-.5h-1c-.281 0-.5.219-.5.5v1c0 .281.219.5.5.5h1c.281 0 .5-.219.5-.5zm4 16v-1c0-.281-.219-.5-.5-.5h-1c-.281 0-.5.219-.5.5v1c0 .281.219.5.5.5h1c.281 0 .5-.219.5-.5zm0-4v-1c0-.281-.219-.5-.5-.5h-1c-.281 0-.5.219-.5.5v1c0 .281.219.5.5.5h1c.281 0 .5-.219.5-.5zm0-4v-1c0-.281-.219-.5-.5-.5h-1c-.281 0-.5.219-.5.5v1c0 .281.219.5.5.5h1c.281 0 .5-.219.5-.5zm0-4v-1c0-.281-.219-.5-.5-.5h-1c-.281 0-.5.219-.5.5v1c0 .281.219.5.5.5h1c.281 0 .5-.219.5-.5zm0-4v-1c0-.281-.219-.5-.5-.5h-1c-.281 0-.5.219-.5.5v1c0 .281.219.5.5.5h1c.281 0 .5-.219.5-.5z"></path>
      </symbol>
      <symbol id="icon-home" viewBox="0 0 26 28">
        <path d="M22 15.5V23c0 .547-.453 1-1 1h-6v-6h-4v6H5c-.547 0-1-.453-1-1v-7.5c0-.031.016-.063.016-.094L13 8l8.984 7.406c.016.031.016.063.016.094zm3.484-1.078l-.969 1.156a.52.52 0 01-.328.172h-.047a.49.49 0 01-.328-.109L12.999 6.625 2.186 15.641a.531.531 0 01-.375.109.52.52 0 01-.328-.172l-.969-1.156a.51.51 0 01.063-.703L11.811 4.36c.656-.547 1.719-.547 2.375 0l3.813 3.187V4.5c0-.281.219-.5.5-.5h3c.281 0 .5.219.5.5v6.375l3.422 2.844c.203.172.234.5.063.703z"></path>
      </symbol>
      <symbol id="icon-search" viewBox="0 0 26 28">
        <path d="M18 13c0-3.859-3.141-7-7-7s-7 3.141-7 7 3.141 7 7 7 7-3.141 7-7zm8 13c0 1.094-.906 2-2 2a1.96 1.96 0 01-1.406-.594l-5.359-5.344a10.971 10.971 0 01-6.234 1.937c-6.078 0-11-4.922-11-11s4.922-11 11-11 11 4.922 11 11c0 2.219-.672 4.406-1.937 6.234l5.359 5.359c.359.359.578.875.578 1.406z"></path>
      </symbol>
      <symbol id="icon-video-camera" viewBox="0 0 28 28">
        <path d="M28 5.5v17c0 .406-.25.766-.609.922A1.158 1.158 0 0127 23.5a.932.932 0 01-.703-.297L20 16.906V19.5c0 2.484-2.016 4.5-4.5 4.5h-11A4.502 4.502 0 010 19.5v-11C0 6.016 2.016 4 4.5 4h11C17.984 4 20 6.016 20 8.5v2.578l6.297-6.281A.934.934 0 0127 4.5c.125 0 .266.031.391.078.359.156.609.516.609.922z"></path>
      </symbol>
      <symbol id="icon-bed" viewBox="0 0 32 28">
        <path d="M4 16h27c.547 0 1 .453 1 1v7h-4v-4H4v4H0V5c0-.547.453-1 1-1h2c.547 0 1 .453 1 1v11zm9-5c0-2.203-1.797-4-4-4s-4 1.797-4 4 1.797 4 4 4 4-1.797 4-4zm19 4v-1c0-3.313-2.688-6-6-6H15c-.547 0-1 .453-1 1v6h18z"></path>
      </symbol>
      <symbol id="icon-bath" viewBox="0 0 28 28">
        <path d="M26 17v3c0 1.781-.781 3.359-2 4.469V27.5c0 .281-.219.5-.5.5h-1a.494.494 0 01-.5-.5v-1.844A6.035 6.035 0 0120 26H8a6.035 6.035 0 01-2-.344v1.719c0 .344-.219.625-.5.625h-1c-.281 0-.5-.281-.5-.625v-2.906C2.781 23.36 2 21.781 2 20v-3h24zm-15-6.5c0 .281-.219.5-.5.5s-.5-.219-.5-.5.219-.5.5-.5.5.219.5.5zm1-1c0 .281-.219.5-.5.5s-.5-.219-.5-.5.219-.5.5-.5.5.219.5.5zm-1-1c0 .281-.219.5-.5.5s-.5-.219-.5-.5.219-.5.5-.5.5.219.5.5zm2 0c0 .281-.219.5-.5.5s-.5-.219-.5-.5.219-.5.5-.5.5.219.5.5zm-1-1c0 .281-.219.5-.5.5s-.5-.219-.5-.5.219-.5.5-.5.5.219.5.5zm-1-1c0 .281-.219.5-.5.5s-.5-.219-.5-.5.219-.5.5-.5.5.219.5.5zm17 8v1c0 .281-.219.5-.5.5H.5a.494.494 0 01-.5-.5v-1c0-.281.219-.5.5-.5H2V4c0-2.203 1.797-4 4-4 1.125 0 2.141.469 2.875 1.219a3.035 3.035 0 012.984.422l.344-.344a.245.245 0 01.344 0l.656.656a.245.245 0 010 .344L8.297 7.203a.245.245 0 01-.344 0l-.656-.656a.245.245 0 010-.344l.344-.344a3.016 3.016 0 01-.266-3.313A1.976 1.976 0 006 1.999c-1.109 0-2 .891-2 2v10h23.5c.281 0 .5.219.5.5zm-14-7c0 .281-.219.5-.5.5s-.5-.219-.5-.5.219-.5.5-.5.5.219.5.5zm-1-1c0 .281-.219.5-.5.5s-.5-.219-.5-.5.219-.5.5-.5.5.219.5.5zm-1-1c0 .281-.219.5-.5.5s-.5-.219-.5-.5.219-.5.5-.5.5.219.5.5zm3 1c0 .281-.219.5-.5.5s-.5-.219-.5-.5.219-.5.5-.5.5.219.5.5zm-1-1c0 .281-.219.5-.5.5s-.5-.219-.5-.5.219-.5.5-.5.5.219.5.5zm-1-1c0 .281-.219.5-.5.5s-.5-.219-.5-.5.219-.5.5-.5.5.219.5.5zm3 1c0 .281-.219.5-.5.5s-.5-.219-.5-.5.219-.5.5-.5.5.219.5.5zm-1-1c0 .281-.219.5-.5.5s-.5-.219-.5-.5.219-.5.5-.5.5.219.5.5zm2 0c0 .281-.219.5-.5.5s-.5-.219-.5-.5.219-.5.5-.5.5.219.5.5z"></path>
      </symbol>
      <symbol id="icon-office" viewBox="0 0 32 32">
        <path d="M0 32h16V0H0v32zM10 4h4v4h-4V4zm0 8h4v4h-4v-4zm0 8h4v4h-4v-4zM2 4h4v4H2V4zm0 8h4v4H2v-4zm0 8h4v4H2v-4zm16-10h14v2H18zm0 22h4v-8h6v8h4V14H18z"></path>
      </symbol>
      <symbol id="icon-phone" viewBox="0 0 32 32">
        <path d="M22 20c-2 2-2 4-4 4s-4-2-6-4-4-4-4-6 2-2 4-4-4-8-6-8-6 6-6 6c0 4 4.109 12.109 8 16s12 8 16 8c0 0 6-4 6-6s-6-8-8-6z"></path>
      </symbol>
      <symbol id="icon-location2" viewBox="0 0 32 32">
        <path d="M16 0C10.477 0 6 4.477 6 10c0 10 10 22 10 22s10-12 10-22c0-5.523-4.477-10-10-10zm0 16.125a6.125 6.125 0 110-12.25 6.125 6.125 0 010 12.25zM12.125 10a3.875 3.875 0 117.75 0 3.875 3.875 0 01-7.75 0z"></path>
      </symbol>
      <symbol id="icon-facebook" viewBox="0 0 32 32">
        <path d="M19 6h5V0h-5c-3.86 0-7 3.14-7 7v3H8v6h4v16h6V16h5l1-6h-6V7c0-.542.458-1 1-1z"></path>
      </symbol>
      <symbol id="icon-instagram" viewBox="0 0 32 32">
        <path d="M16 2.881c4.275 0 4.781.019 6.462.094 1.563.069 2.406.331 2.969.55a4.952 4.952 0 011.837 1.194 5.015 5.015 0 011.2 1.838c.219.563.481 1.412.55 2.969.075 1.688.094 2.194.094 6.463s-.019 4.781-.094 6.463c-.069 1.563-.331 2.406-.55 2.969a4.94 4.94 0 01-1.194 1.837 5.02 5.02 0 01-1.837 1.2c-.563.219-1.413.481-2.969.55-1.688.075-2.194.094-6.463.094s-4.781-.019-6.463-.094c-1.563-.069-2.406-.331-2.969-.55a4.952 4.952 0 01-1.838-1.194 5.02 5.02 0 01-1.2-1.837c-.219-.563-.481-1.413-.55-2.969-.075-1.688-.094-2.194-.094-6.463s.019-4.781.094-6.463c.069-1.563.331-2.406.55-2.969a4.964 4.964 0 011.194-1.838 5.015 5.015 0 011.838-1.2c.563-.219 1.412-.481 2.969-.55 1.681-.075 2.188-.094 6.463-.094zM16 0c-4.344 0-4.887.019-6.594.094-1.7.075-2.869.35-3.881.744-1.056.412-1.95.956-2.837 1.85a7.833 7.833 0 00-1.85 2.831C.444 6.538.169 7.7.094 9.4.019 11.113 0 11.656 0 16s.019 4.887.094 6.594c.075 1.7.35 2.869.744 3.881.413 1.056.956 1.95 1.85 2.837a7.82 7.82 0 002.831 1.844c1.019.394 2.181.669 3.881.744 1.706.075 2.25.094 6.594.094s4.888-.019 6.594-.094c1.7-.075 2.869-.35 3.881-.744 1.05-.406 1.944-.956 2.831-1.844s1.438-1.781 1.844-2.831c.394-1.019.669-2.181.744-3.881.075-1.706.094-2.25.094-6.594s-.019-4.887-.094-6.594c-.075-1.7-.35-2.869-.744-3.881a7.506 7.506 0 00-1.831-2.844A7.82 7.82 0 0026.482.843C25.463.449 24.301.174 22.601.099c-1.712-.081-2.256-.1-6.6-.1z"></path>
        <path d="M16 7.781c-4.537 0-8.219 3.681-8.219 8.219s3.681 8.219 8.219 8.219 8.219-3.681 8.219-8.219A8.221 8.221 0 0016 7.781zm0 13.55a5.331 5.331 0 110-10.663 5.331 5.331 0 010 10.663zM26.462 7.456a1.919 1.919 0 11-3.838 0 1.919 1.919 0 013.838 0z"></path>
      </symbol>
      <symbol id="icon-pinterest" viewBox="0 0 32 32">
        <path d="M16 2.138c-7.656 0-13.863 6.206-13.863 13.863 0 5.875 3.656 10.887 8.813 12.906-.119-1.094-.231-2.781.05-3.975.25-1.081 1.625-6.887 1.625-6.887s-.412-.831-.412-2.056c0-1.925 1.119-3.369 2.506-3.369 1.181 0 1.756.887 1.756 1.95 0 1.188-.756 2.969-1.15 4.613-.331 1.381.688 2.506 2.05 2.506 2.462 0 4.356-2.6 4.356-6.35 0-3.319-2.387-5.638-5.787-5.638-3.944 0-6.256 2.956-6.256 6.019 0 1.194.456 2.469 1.031 3.163a.408.408 0 01.094.4c-.106.438-.338 1.381-.387 1.575-.063.256-.2.306-.463.188-1.731-.806-2.813-3.337-2.813-5.369 0-4.375 3.175-8.387 9.156-8.387 4.806 0 8.544 3.425 8.544 8.006 0 4.775-3.012 8.625-7.194 8.625-1.406 0-2.725-.731-3.175-1.594 0 0-.694 2.644-.863 3.294-.313 1.206-1.156 2.712-1.725 3.631 1.3.4 2.675.619 4.106.619 7.656 0 13.863-6.206 13.863-13.863 0-7.662-6.206-13.869-13.863-13.869z"></path>
      </symbol>
      <symbol id="icon-libreoffice" viewBox="0 0 32 32">
        <path d="M16.707.707C16.318.318 15.55 0 15 0H3c-.55 0-1 .45-1 1v30c0 .55.45 1 1 1h24c.55 0 1-.45 1-1V13c0-.55-.318-1.318-.707-1.707L16.707.707zM26 30H4V2h10.974c.091.015.263.086.338.14l10.549 10.549c.054.075.125.247.14.338v16.974zm1-30h-6c-.55 0-.682.318-.293.707l6.586 6.586c.389.389.707.257.707-.293V1c0-.55-.45-1-1-1z"></path>
      </symbol>
    </defs>
  </symbol>
  <symbol xmlns="http://www.w3.org/2000/svg" viewBox="0 0 780 500" id="visa">
    <path d="M293.2 348.73l33.359-195.76h53.358l-33.384 195.76H293.2zm246.11-191.54c-10.569-3.966-27.135-8.222-47.821-8.222-52.726 0-89.863 26.551-90.181 64.604-.297 28.129 26.515 43.822 46.754 53.185 20.771 9.598 27.752 15.716 27.652 24.283-.133 13.123-16.586 19.115-31.924 19.115-21.355 0-32.701-2.967-50.225-10.273l-6.878-3.111-7.487 43.822c12.463 5.467 35.508 10.199 59.438 10.445 56.09 0 92.502-26.248 92.916-66.885.199-22.27-14.016-39.215-44.801-53.188-18.65-9.056-30.072-15.099-29.951-24.269 0-8.137 9.668-16.838 30.56-16.838 17.446-.271 30.088 3.534 39.936 7.5l4.781 2.259 7.231-42.427m137.31-4.223h-41.23c-12.772 0-22.332 3.486-27.94 16.234l-79.245 179.4h56.031s9.159-24.121 11.231-29.418c6.123 0 60.555.084 68.336.084 1.596 6.854 6.492 29.334 6.492 29.334h49.512l-43.187-195.64zm-65.417 126.41c4.414-11.279 21.26-54.724 21.26-54.724-.314.521 4.381-11.334 7.074-18.684l3.606 16.878s10.217 46.729 12.353 56.527h-44.293v.003zm-363.3-126.41l-52.239 133.5-5.565-27.129c-9.726-31.274-40.025-65.157-73.898-82.12l47.767 171.2 56.455-.063 84.004-195.39-56.524-.001" fill="#0E4595"></path>
    <path d="M146.92 152.96H60.879l-.682 4.073c66.939 16.204 111.23 55.363 129.62 102.42l-18.709-89.96c-3.229-12.396-12.597-16.096-24.186-16.528" fill="#F2AE14"></path>
  </symbol>
  <symbol xmlns="http://www.w3.org/2000/svg" viewBox="0 0 780 500" id="mastercard">
    <path d="M449.01 250c0 99.143-80.371 179.5-179.51 179.5S90 349.139 90 250c0-99.133 80.362-179.5 179.5-179.5 99.137 0 179.51 80.371 179.51 179.5" fill="#D9222A"></path>
    <path d="M510.49 70.496c-46.379 0-88.643 17.596-120.5 46.467a182.443 182.443 0 00-18.125 18.996h36.267a182.049 182.049 0 0113.685 19.012h-63.635a179.132 179.132 0 00-10.342 19.008h84.313a179.278 179.278 0 017.601 19.004h-99.513a177.252 177.252 0 00-5.217 19.008h109.94a180.388 180.388 0 014.042 38.008c0 19.935-3.254 39.112-9.254 57.021h-99.513a177.287 177.287 0 007.596 19.008h84.316a179.424 179.424 0 01-10.347 19.013h-63.625a181.2 181.2 0 0013.685 18.996h36.259a179.35 179.35 0 01-18.13 19.013c31.857 28.866 74.117 46.454 120.5 46.454 99.139 0 179.51-80.361 179.51-179.5 0-99.129-80.371-179.5-179.51-179.5" fill="#EE9F2D"></path>
    <path d="M666.07 350.06c0-3.199 2.592-5.801 5.796-5.801s5.796 2.602 5.796 5.801-2.592 5.801-5.796 5.801-5.796-2.602-5.796-5.801zm5.796 4.408a4.41 4.41 0 004.408-4.408 4.405 4.405 0 00-4.402-4.404h-.006a4.398 4.398 0 00-4.404 4.391v.014a4.404 4.404 0 004.4 4.408l.004-.001zm-.783-1.86h-1.187v-5.096h2.149c.45 0 .908 0 1.305.254.413.279.646.771.646 1.279 0 .571-.338 1.104-.884 1.312l.938 2.25h-1.315l-.779-2.017h-.871l-.002 2.018zm0-2.89h.658c.246 0 .505.021.726-.1.195-.125.296-.359.296-.584a.638.638 0 00-.288-.518c-.207-.129-.536-.101-.758-.101h-.634v1.303zm-443.5-80.063c-2.046-.238-2.945-.301-4.35-.301-11.046 0-16.638 3.787-16.638 11.268 0 4.611 2.729 7.545 6.987 7.545 7.939 0 13.659-7.559 14.001-18.512zm14.171 32.996h-16.146l.371-7.676c-4.926 6.065-11.496 8.949-20.426 8.949-10.563 0-17.804-8.25-17.804-20.229 0-18.024 12.596-28.541 34.217-28.541 2.208 0 5.042.199 7.941.57.604-2.441.763-3.488.763-4.801 0-4.908-3.396-6.737-12.5-6.737-9.533-.108-17.396 2.271-20.625 3.333.204-1.229 2.7-16.659 2.7-16.659 9.712-2.846 16.116-3.917 23.325-3.917 16.732 0 25.596 7.513 25.579 21.712.033 3.805-.597 8.5-1.579 14.671-1.691 10.734-5.32 33.721-5.816 39.325zm-62.158 0h-19.487l11.162-69.997-24.925 69.997h-13.279l-1.642-69.597-11.733 69.597H101.45l15.237-91.056h28.021l1.7 50.968 17.092-50.968h31.167l-15.071 91.056m354.97-32.996c-2.037-.238-2.941-.301-4.342-.301-11.041 0-16.634 3.787-16.634 11.268 0 4.611 2.726 7.545 6.983 7.545 7.94 0 13.664-7.559 13.993-18.512zm14.184 32.996h-16.146l.366-7.676c-4.926 6.065-11.5 8.949-20.422 8.949-10.565 0-17.8-8.25-17.8-20.229 0-18.024 12.588-28.541 34.213-28.541 2.208 0 5.037.199 7.934.57.604-2.441.763-3.488.763-4.801 0-4.908-3.392-6.737-12.496-6.737-9.533-.108-17.387 2.271-20.629 3.333.204-1.229 2.709-16.659 2.709-16.659 9.712-2.846 16.112-3.917 23.313-3.917 16.74 0 25.604 7.513 25.587 21.712.032 3.805-.597 8.5-1.579 14.671-1.684 10.734-5.321 33.721-5.813 39.325zm-220.39-1.125c-5.333 1.679-9.491 2.398-14 2.398-9.962 0-15.399-5.725-15.399-16.267-.142-3.271 1.433-11.88 2.671-19.737 1.125-6.917 8.449-50.529 8.449-50.529h19.371l-2.263 11.208h11.699l-2.642 17.796h-11.742c-2.25 14.083-5.454 31.625-5.491 33.95 0 3.816 2.037 5.483 6.671 5.483 2.221 0 3.94-.227 5.254-.7l-2.578 16.398m59.392-.6c-6.654 2.034-13.075 3.017-19.879 3-21.684-.021-32.987-11.346-32.987-33.032 0-25.313 14.38-43.947 33.899-43.947 15.971 0 26.171 10.433 26.171 26.796 0 5.429-.7 10.729-2.388 18.212h-38.574c-1.305 10.741 5.57 15.217 16.837 15.217 6.935 0 13.188-1.429 20.142-4.663l-3.221 18.417zm-10.888-43.9c.107-1.543 2.055-13.217-9.013-13.217-6.171 0-10.583 4.704-12.38 13.217h21.393zm-123.42-5.017c0 9.367 4.542 15.826 14.842 20.676 7.892 3.709 9.112 4.81 9.112 8.17 0 4.617-3.479 6.701-11.191 6.701-5.813 0-11.221-.908-17.458-2.922 0 0-2.563 16.321-2.68 17.102 4.43.967 8.38 1.861 20.279 2.19 20.563 0 30.059-7.829 30.059-24.75 0-10.175-3.976-16.146-13.737-20.634-8.171-3.75-9.108-4.587-9.108-8.045 0-4.004 3.237-6.046 9.537-6.046 3.825 0 9.05.408 14 1.112l2.775-17.175c-5.046-.8-12.696-1.442-17.15-1.442-21.801.001-29.347 11.388-29.28 25.063m229.09-23.116c5.412 0 10.458 1.421 17.412 4.921l3.188-19.763c-2.854-1.121-12.904-7.7-21.417-7.7-13.041 0-24.065 6.471-31.82 17.15-11.309-3.746-15.958 3.825-21.657 11.367l-5.063 1.179c.383-2.483.729-4.95.612-7.446h-17.896c-2.445 22.917-6.778 46.128-10.171 69.075l-.884 4.976h19.496c3.254-21.143 5.037-34.68 6.121-43.842l7.341-4.084c1.097-4.078 4.529-5.458 11.417-5.291a82.974 82.974 0 00-1.383 15.184c0 24.225 13.07 39.308 34.05 39.308 5.404 0 10.041-.712 17.221-2.658l3.43-20.759c-6.458 3.181-11.759 4.677-16.559 4.677-11.329 0-18.184-8.363-18.184-22.185 0-20.051 10.196-34.109 24.746-34.109"></path>
    <path d="M185.21 297.24h-19.491l11.171-69.988-24.926 69.988h-13.283l-1.642-69.588-11.733 69.588h-18.241l15.237-91.042h28.021l.788 56.362 18.904-56.362h30.267L185.21 297.24" fill="#fff"></path>
    <path d="M647.52 211.6l-4.321 26.309c-5.329-7.013-11.054-12.088-18.612-12.088-9.833 0-18.783 7.455-24.642 18.425-8.158-1.692-16.597-4.563-16.597-4.563l-.004.067c.658-6.134.921-9.875.862-11.146h-17.9c-2.438 22.917-6.771 46.128-10.157 69.075l-.893 4.976h19.492c2.633-17.096 4.648-31.291 6.133-42.551 6.658-6.016 9.992-11.266 16.721-10.916-2.979 7.205-4.725 15.503-4.725 24.017 0 18.513 9.366 30.725 23.533 30.725 7.142 0 12.621-2.462 17.967-8.171l-.913 6.884h18.435l14.842-91.042-19.221-.001zm-24.371 73.941c-6.634 0-9.983-4.908-9.983-14.596 0-14.555 6.271-24.875 15.112-24.875 6.695 0 10.32 5.104 10.32 14.509.001 14.679-6.37 24.962-15.449 24.962z"></path>
    <path d="M233.19 264.26c-2.042-.236-2.946-.299-4.346-.299-11.046 0-16.634 3.787-16.634 11.266 0 4.604 2.729 7.547 6.979 7.547 7.947-.001 13.668-7.559 14.001-18.514zm14.178 32.984h-16.146l.367-7.663c-4.921 6.054-11.5 8.95-20.421 8.95-10.567 0-17.805-8.25-17.805-20.229 0-18.032 12.592-28.542 34.217-28.542 2.208 0 5.042.2 7.938.571.604-2.441.763-3.487.763-4.808 0-4.909-3.392-6.729-12.496-6.729-9.537-.108-17.396 2.271-20.629 3.321.204-1.225 2.7-16.637 2.7-16.637 9.708-2.858 16.12-3.929 23.32-3.929 16.737 0 25.604 7.517 25.588 21.704.029 3.821-.604 8.513-1.584 14.675-1.687 10.724-5.319 33.724-5.812 39.316zm261.38-88.592l-3.191 19.767c-6.95-3.496-12-4.92-17.407-4.92-14.551 0-24.75 14.058-24.75 34.106 0 13.821 6.857 22.181 18.184 22.181 4.8 0 10.096-1.492 16.554-4.675l-3.421 20.75c-7.184 1.957-11.816 2.67-17.225 2.67-20.977 0-34.051-15.084-34.051-39.309 0-32.55 18.059-55.3 43.888-55.3 8.507.001 18.561 3.609 21.419 4.73m31.443 55.608c-2.041-.236-2.941-.299-4.347-.299-11.041 0-16.633 3.787-16.633 11.266 0 4.604 2.729 7.547 6.983 7.547 7.938-.001 13.663-7.559 13.997-18.514zm14.178 32.984h-16.15l.371-7.663c-4.925 6.054-11.5 8.95-20.421 8.95-10.563 0-17.804-8.25-17.804-20.229 0-18.032 12.596-28.542 34.212-28.542 2.213 0 5.042.2 7.941.571.601-2.441.763-3.487.763-4.808 0-4.909-3.393-6.729-12.495-6.729-9.533-.108-17.396 2.271-20.63 3.321.204-1.225 2.704-16.637 2.704-16.637 9.709-2.858 16.116-3.929 23.316-3.929 16.741 0 25.604 7.517 25.583 21.704.033 3.821-.596 8.513-1.579 14.675-1.682 10.724-5.323 33.724-5.811 39.316zm-220.39-1.121c-5.338 1.679-9.496 2.408-14 2.408-9.962 0-15.399-5.726-15.399-16.268-.138-3.279 1.438-11.88 2.675-19.736 1.12-6.926 8.445-50.534 8.445-50.534h19.368l-2.26 11.212h9.941l-2.646 17.788h-9.975c-2.25 14.092-5.463 31.62-5.496 33.95 0 3.83 2.041 5.482 6.671 5.482 2.221 0 3.938-.216 5.254-.691l-2.578 16.389m59.391-.592c-6.65 2.033-13.079 3.012-19.879 3-21.685-.021-32.987-11.346-32.987-33.033 0-25.321 14.379-43.95 33.899-43.95 15.971 0 26.171 10.429 26.171 26.8 0 5.434-.7 10.733-2.384 18.212h-38.574c-1.306 10.741 5.569 15.222 16.837 15.222 6.93 0 13.188-1.435 20.138-4.677l-3.221 18.426zm-10.891-43.912c.116-1.538 2.06-13.217-9.013-13.217-6.167 0-10.579 4.717-12.375 13.217h21.388zm-123.42-5.005c0 9.367 4.542 15.818 14.842 20.675 7.892 3.709 9.112 4.812 9.112 8.172 0 4.616-3.483 6.699-11.188 6.699-5.816 0-11.225-.908-17.467-2.921 0 0-2.554 16.321-2.671 17.101 4.421.967 8.375 1.85 20.275 2.191 20.566 0 30.059-7.829 30.059-24.746 0-10.18-3.971-16.15-13.737-20.637-8.167-3.759-9.113-4.584-9.113-8.046 0-4 3.246-6.059 9.542-6.059 3.821 0 9.046.421 14.004 1.125l2.771-17.179c-5.042-.8-12.692-1.441-17.146-1.441-21.804 0-29.346 11.379-29.283 25.066m398.45 50.63h-18.438l.917-6.893c-5.347 5.717-10.825 8.18-17.968 8.18-14.166 0-23.528-12.213-23.528-30.726 0-24.63 14.521-45.392 31.708-45.392 7.559 0 13.279 3.087 18.604 10.096l4.325-26.308h19.221l-14.841 91.043zm-28.746-17.109c9.075 0 15.45-10.283 15.45-24.953 0-9.405-3.629-14.509-10.325-14.509-8.837 0-15.115 10.315-15.115 24.875-.001 9.686 3.357 14.587 9.99 14.587zm-56.842-56.929c-2.441 22.917-6.773 46.13-10.162 69.063l-.892 4.976h19.491c6.972-45.275 8.658-54.117 19.588-53.009 1.742-9.267 4.982-17.383 7.399-21.479-8.163-1.7-12.721 2.913-18.688 11.675.471-3.788 1.333-7.467 1.162-11.225l-17.898-.001m-160.42 0c-2.446 22.917-6.779 46.13-10.167 69.063l-.888 4.976h19.5c6.963-45.275 8.646-54.117 19.57-53.009 1.75-9.267 4.991-17.383 7.399-21.479-8.154-1.7-12.717 2.913-18.679 11.675.471-3.788 1.324-7.467 1.162-11.225l-17.897-.001m254.57 68.241a5.792 5.792 0 015.784-5.799h.012a5.79 5.79 0 015.796 5.783v.016a5.799 5.799 0 01-5.796 5.797 5.799 5.799 0 01-5.796-5.797zm5.796 4.405a4.4 4.4 0 004.403-4.399v-.004a4.403 4.403 0 00-4.399-4.408h-.004a4.41 4.41 0 00-4.408 4.408 4.408 4.408 0 004.408 4.403zm-.784-1.871h-1.188v-5.082h2.153c.446 0 .909.009 1.296.254.417.283.654.767.654 1.274 0 .575-.337 1.112-.888 1.317l.941 2.236h-1.32l-.779-2.009h-.87l.001 2.01zm0-2.879h.653c.246 0 .513.019.729-.1.196-.125.296-.361.296-.588a.668.668 0 00-.287-.523c-.204-.117-.542-.084-.763-.084h-.629l.001 1.295z" fill="#fff"></path>
  </symbol>
  <symbol xmlns="http://www.w3.org/2000/svg" viewBox="0 0 780 500" id="paypal">
    <path d="M168.38 169.35c-8.399-5.774-19.359-8.668-32.88-8.668H83.154c-4.145 0-6.435 2.073-6.87 6.215L55.02 300.377c-.221 1.311.107 2.51.981 3.6.869 1.092 1.962 1.635 3.271 1.635h24.864c4.361 0 6.758-2.068 7.198-6.215l5.888-35.986c.215-1.744.982-3.162 2.291-4.254 1.308-1.09 2.944-1.803 4.907-2.129 1.963-.324 3.814-.488 5.562-.488 1.743 0 3.814.111 6.217.328 2.397.217 3.925.324 4.58.324 18.756 0 33.478-5.285 44.167-15.867 10.684-10.576 16.032-25.242 16.032-44.004 0-12.868-4.203-22.191-12.598-27.974zm-26.989 40.08c-1.094 7.635-3.926 12.649-8.506 15.049-4.581 2.403-11.124 3.599-19.629 3.599l-10.797.326 5.563-35.007c.434-2.397 1.851-3.597 4.252-3.597h6.218c8.72 0 15.049 1.257 18.975 3.761 3.924 2.51 5.233 7.801 3.924 15.869z" fill="#003087"></path>
    <path d="M720.79 160.68h-24.207c-2.406 0-3.822 1.2-4.254 3.601l-21.266 136.1-.328.654c0 1.096.436 2.127 1.311 3.109.867.98 1.963 1.471 3.27 1.471h21.596c4.137 0 6.428-2.068 6.871-6.215l21.264-133.81v-.325c-.001-3.055-1.423-4.581-4.257-4.581z" fill="#009CDE"></path>
    <path d="M428.31 213.36c0-1.088-.438-2.126-1.305-3.105-.875-.981-1.857-1.475-2.945-1.475h-25.191c-2.404 0-4.367 1.096-5.891 3.271L358.3 263.09l-14.395-49.074c-1.096-3.487-3.492-5.236-7.197-5.236h-24.541c-1.093 0-2.074.492-2.941 1.475-.875.979-1.309 2.019-1.309 3.105 0 .439 2.127 6.871 6.379 19.303 4.252 12.436 8.832 25.85 13.74 40.246 4.908 14.393 7.469 22.031 7.688 22.896-17.886 24.432-26.825 37.518-26.825 39.26 0 2.838 1.415 4.254 4.253 4.254h25.191c2.398 0 4.36-1.088 5.89-3.27l83.427-120.4c.433-.432.65-1.192.65-2.29z" fill="#003087"></path>
    <path d="M662.89 208.78h-24.865c-3.057 0-4.904 3.6-5.559 10.799-5.678-8.722-16.031-13.089-31.084-13.089-15.703 0-29.064 5.89-40.076 17.668-11.016 11.778-16.521 25.632-16.521 41.552 0 12.871 3.762 23.121 11.285 30.752 7.525 7.639 17.611 11.451 30.266 11.451 6.324 0 12.758-1.311 19.301-3.926 6.543-2.617 11.664-6.105 15.379-10.469 0 .219-.223 1.197-.654 2.941-.441 1.748-.656 3.061-.656 3.926 0 3.494 1.414 5.234 4.254 5.234h22.576c4.139 0 6.541-2.068 7.193-6.215l13.416-85.39c.215-1.31-.111-2.507-.982-3.599-.877-1.088-1.965-1.635-3.273-1.635zm-42.694 64.454c-5.562 5.453-12.27 8.178-20.121 8.178-6.328 0-11.449-1.742-15.377-5.234-3.928-3.482-5.891-8.281-5.891-14.395 0-8.064 2.727-14.886 8.182-20.447 5.445-5.562 12.213-8.342 20.283-8.342 6.102 0 11.174 1.799 15.213 5.396 4.031 3.6 6.055 8.562 6.055 14.889-.002 7.851-2.783 14.505-8.344 19.955z" fill="#009CDE"></path>
    <path d="M291.23 208.78h-24.865c-3.058 0-4.908 3.6-5.563 10.799-5.889-8.722-16.25-13.089-31.081-13.089-15.704 0-29.065 5.89-40.078 17.668-11.016 11.778-16.521 25.632-16.521 41.552 0 12.871 3.763 23.121 11.288 30.752 7.525 7.639 17.61 11.451 30.262 11.451 6.104 0 12.433-1.311 18.975-3.926 6.543-2.617 11.778-6.105 15.704-10.469-.875 2.615-1.309 4.906-1.309 6.867 0 3.494 1.417 5.234 4.253 5.234h22.574c4.141 0 6.543-2.068 7.198-6.215l13.413-85.39c.215-1.31-.111-2.507-.981-3.599-.873-1.088-1.962-1.635-3.269-1.635zm-42.695 64.616c-5.563 5.35-12.382 8.016-20.447 8.016-6.329 0-11.4-1.742-15.214-5.234-3.819-3.482-5.726-8.281-5.726-14.395 0-8.064 2.725-14.886 8.18-20.447 5.449-5.562 12.211-8.343 20.284-8.343 6.104 0 11.175 1.8 15.214 5.397 4.032 3.6 6.052 8.562 6.052 14.889-.001 8.07-2.781 14.779-8.343 20.117z" fill="#003087"></path>
    <path d="M540.04 169.35c-8.398-5.774-19.355-8.668-32.879-8.668h-52.02c-4.363 0-6.764 2.073-7.197 6.215l-21.266 133.48c-.221 1.311.107 2.51.982 3.6.865 1.092 1.961 1.635 3.27 1.635h26.826c2.617 0 4.361-1.416 5.236-4.252l5.889-37.949c.217-1.744.98-3.162 2.291-4.254 1.309-1.09 2.943-1.803 4.908-2.129 1.961-.324 3.812-.488 5.561-.488 1.744 0 3.814.111 6.215.328 2.398.217 3.93.324 4.58.324 18.76 0 33.479-5.285 44.168-15.867 10.688-10.576 16.031-25.242 16.031-44.004.001-12.868-4.2-22.192-12.595-27.974zm-33.533 53.819c-4.799 3.271-11.998 4.906-21.592 4.906l-10.471.328 5.562-35.008c.432-2.396 1.85-3.598 4.252-3.598h5.887c4.799 0 8.615.219 11.455.654 2.83.438 5.561 1.799 8.178 4.088 2.619 2.291 3.926 5.619 3.926 9.979 0 9.164-2.402 15.377-7.197 18.651z" fill="#009CDE"></path>
  </symbol>
</svg>