<svg width="0" height="0" class="hidden">
  <symbol xmlns="http://www.w3.org/2000/svg" viewBox="0 0 24 28" id="chevron-circle-right">
    <title>chevron-circle-right</title>
    <path d="M11.203 21.797l7.094-7.094a.99.99 0 000-1.406l-7.094-7.094a.99.99 0 00-1.406 0L8.203 7.797a.99.99 0 000 1.406L13 14l-4.797 4.797a.99.99 0 000 1.406l1.594 1.594a.99.99 0 001.406 0zM24 14c0 6.625-5.375 12-12 12S0 20.625 0 14 5.375 2 12 2s12 5.375 12 12z"></path>
  </symbol>
  <symbol viewBox="0 0 0 0" id="sprite"></symbol>
  <symbol xmlns="http://www.w3.org/2000/svg" viewBox="0 0 24 28" id="chevron-circle-left">
    <title>chevron-circle-left</title>
    <path d="M14.203 21.797l1.594-1.594a.99.99 0 000-1.406L11 14l4.797-4.797a.99.99 0 000-1.406l-1.594-1.594a.99.99 0 00-1.406 0l-7.094 7.094a.99.99 0 000 1.406l7.094 7.094a.99.99 0 001.406 0zM24 14c0 6.625-5.375 12-12 12S0 20.625 0 14 5.375 2 12 2s12 5.375 12 12z"></path>
  </symbol>
</svg>