<svg width="0" height="0" class="hidden">
  <symbol xmlns="http://www.w3.org/2000/svg" viewBox="0 0 464.211 464.211" id="loan">
    <path d="M453.449 132.802a28.556 28.556 0 00-.425-.284L398.4 96.11h1.6v-56a8 8 0 00-8-8h-40a8 8 0 00-8 8v19.72l-75.56-50.4a7.999 7.999 0 00-8.88 0L74.976 132.518c-11.4 7.431-14.618 22.697-7.187 34.097 7.431 11.4 22.697 14.618 34.097 7.187.143-.093.285-.188.425-.284L128 156.39v155.72h-16a8 8 0 00-8-8H40a8 8 0 00-8 8H0v16h32v80H0v16h32a8 8 0 008 8h64a8 8 0 008-8v-3.048l59.728 24.8a138.49 138.49 0 00101.808 1.12L397.12 399.87a29.103 29.103 0 0016.336-15.576 29.6 29.6 0 00.472-22.968A29.036 29.036 0 00400 346.07V156.39l25.688 17.128c11.244 7.666 26.573 4.766 34.239-6.477 7.666-11.244 4.766-26.573-6.478-34.239zM96 416.11H48v-96h48v96zm264-368h24v38.4l-24-16v-22.4zm38.824 329.72a13.248 13.248 0 01-7.408 7.088l-123.584 47.12a122.4 122.4 0 01-90.016-.976L112 403.726V328.11h20.28a171.673 171.673 0 0176.424 18.048 56.793 56.793 0 0025.24 5.952H296c6.627.039 11.969 5.442 11.93 12.07a11.999 11.999 0 01-9.282 11.618c-1.048.096-2.08.312-3.144.312H200v16h96c.16 0 .312-.048.48-.048a49.484 49.484 0 0018.464-3.904l66.888-28.4a12.706 12.706 0 019.976 0 13.272 13.272 0 017.2 7.456 13.753 13.753 0 01-.184 10.616zM296 336.11h-62.056a40.798 40.798 0 01-18.088-4.264A187.83 187.83 0 00144 312.51v-166.8l120-80 120 80v197.296a28.917 28.917 0 00-8.424 2.016l-51.872 22.032c.151-.975.25-1.958.296-2.944 0-15.464-12.536-28-28-28zm147.44-175.48v-.024a8.567 8.567 0 01-8.88-.424L268.44 49.454a7.999 7.999 0 00-8.88 0L93.44 160.206a8.648 8.648 0 01-13.44-7.2 8.632 8.632 0 013.848-7.2L264 25.71l180.152 120.12a8.634 8.634 0 013.848 7.2 8.503 8.503 0 01-4.56 7.6z"></path>
    <path d="M64 384.11h16v16H64zm222.968-157.643a22.752 22.752 0 00-11.592-13.613l-15.592-7.8a6.832 6.832 0 013.048-12.944h2.336a6.848 6.848 0 016.832 6.832v1.168h16v-1.168a22.792 22.792 0 00-16-21.672v-9.16h-16v9.16c-11.999 3.732-18.7 16.484-14.968 28.483a22.752 22.752 0 0011.592 13.613l15.592 7.8a6.832 6.832 0 01-3.048 12.944h-2.336a6.848 6.848 0 01-6.832-6.832v-1.168h-16v1.168a22.792 22.792 0 0016 21.672v9.16h16v-9.16c11.999-3.732 18.7-16.484 14.968-28.483z"></path>
    <path d="M264 136.11c-44.163.048-79.951 35.837-80 80 0 44.183 35.817 80 80 80s80-35.817 80-80c0-44.182-35.817-80-80-80zm0 144c-35.346 0-64-28.654-64-64 0-35.346 28.654-64 64-64 35.33.04 63.96 28.67 64 64 0 35.347-28.654 64-64 64z"></path>
    <path d="M296 208.11h16v16h-16zm-80 0h16v16h-16z"></path>
  </symbol>
  <symbol xmlns="http://www.w3.org/2000/svg" viewBox="0 0 512 512" id="apartment">
    <path d="M172.143 137.714h30v30h-30zm0 68.857h30v30h-30zm137.714 0h30v30h-30zm68.857 0h30v30h-30zm-68.857 68.858h30v30h-30zm68.857 0h30v30h-30zm-68.857 68.857h30v30h-30zm68.857 0h30v30h-30zm-68.857 68.857h30v30h-30zm68.857 0h30v30h-30zM103.286 206.571h30v30h-30zm68.857 68.858h30v30h-30zm-68.857 0h30v30h-30zm68.857 68.857h30v30h-30zm-68.857 0h30v30h-30z"></path>
    <path d="M477.571 482V137.714H271V66.15l-34.429 5.738V0H68.857v99.841l-34.428 5.738V482H0v30h512v-30zm-30-314.286V482H271V167.714zM98.857 30h107.714v46.888L98.857 94.841zM64.429 130.993L241 101.564V482h-38.857v-68.857h-98.857V482H64.429zM172.143 482h-38.857v-38.857h38.857z"></path>
  </symbol>
  <symbol xmlns="http://www.w3.org/2000/svg" viewBox="0 0 512 512" id="bed">
    <path d="M496 344h-8v-64a32.042 32.042 0 00-32-32V112a32.042 32.042 0 00-32-32H88a32.042 32.042 0 00-32 32v136a32.042 32.042 0 00-32 32v64h-8a8 8 0 00-8 8v32a8 8 0 008 8h8v32a8 8 0 008 8h24a7.99 7.99 0 007.84-6.43L70.56 392h370.88l6.72 33.57A7.99 7.99 0 00456 432h24a8 8 0 008-8v-32h8a8 8 0 008-8v-32a8 8 0 00-8-8zM72 112a16.021 16.021 0 0116-16h336a16.021 16.021 0 0116 16v136h-16v-32a32.042 32.042 0 00-32-32h-96a32.042 32.042 0 00-32 32v32h-16v-32a32.042 32.042 0 00-32-32h-96a32.042 32.042 0 00-32 32v32H72zm336 104v32H280v-32a16.021 16.021 0 0116-16h96a16.021 16.021 0 0116 16zm-176 0v32H104v-32a16.021 16.021 0 0116-16h96a16.021 16.021 0 0116 16zM40 280a16.021 16.021 0 0116-16h400a16.021 16.021 0 0116 16v64H40zm9.44 136H40v-24h14.24zM472 416h-9.44l-4.8-24H472zm16-40H24v-16h464z"></path>
  </symbol>
  <symbol xmlns="http://www.w3.org/2000/svg" viewBox="0 0 24 28" id="chevron-circle-left">
    <title>chevron-circle-left</title>
    <path d="M14.203 21.797l1.594-1.594a.99.99 0 000-1.406L11 14l4.797-4.797a.99.99 0 000-1.406l-1.594-1.594a.99.99 0 00-1.406 0l-7.094 7.094a.99.99 0 000 1.406l7.094 7.094a.99.99 0 001.406 0zM24 14c0 6.625-5.375 12-12 12S0 20.625 0 14 5.375 2 12 2s12 5.375 12 12z"></path>
  </symbol>
  <symbol xmlns="http://www.w3.org/2000/svg" viewBox="0 0 24 28" id="chevron-circle-right">
    <title>chevron-circle-right</title>
    <path d="M11.203 21.797l7.094-7.094a.99.99 0 000-1.406l-7.094-7.094a.99.99 0 00-1.406 0L8.203 7.797a.99.99 0 000 1.406L13 14l-4.797 4.797a.99.99 0 000 1.406l1.594 1.594a.99.99 0 001.406 0zM24 14c0 6.625-5.375 12-12 12S0 20.625 0 14 5.375 2 12 2s12 5.375 12 12z"></path>
  </symbol>
  <symbol aria-hidden="true" xmlns="http://www.w3.org/2000/svg" overflow="hidden" viewBox="0 0 undefined undefined" id="eastwest">
    <defs>
      <symbol id="icon-east" viewBox="0 0 24 24">
        <path d="M15 5.016l-1.406 1.406 4.594 4.594H2.016v1.969h16.172l-4.594 4.594L15 18.985l6.984-6.984z"></path>
      </symbol>
      <symbol id="icon-west" viewBox="0 0 24 24">
        <path d="M9 18.984l1.406-1.406-4.594-4.594h16.172v-1.969H5.812l4.594-4.594L9 5.015l-6.984 6.984z"></path>
      </symbol>
    </defs>
  </symbol>
  <symbol xmlns="http://www.w3.org/2000/svg" viewBox="0 0 512 512" id="employee">
    <path d="M120.04 99.112c0-8.394-6.829-15.223-15.222-15.223H72.537c-8.394 0-15.223 6.829-15.223 15.223v32.282c0 8.394 6.83 15.223 15.223 15.223h32.282c8.394 0 15.222-6.829 15.222-15.223V99.112zm-14.998 32.281a.224.224 0 01-.224.224H72.537a.225.225 0 01-.225-.224V99.112c0-.124.101-.224.225-.224h32.282c.123 0 .224.101.224.224v32.281zm95.257-32.281c0-8.394-6.829-15.223-15.222-15.223h-32.282c-8.394 0-15.223 6.829-15.223 15.223v32.282c0 8.394 6.83 15.223 15.223 15.223h32.282c8.394 0 15.222-6.829 15.222-15.223zm-14.998 32.281a.224.224 0 01-.224.224h-32.282a.225.225 0 01-.225-.224V99.112c0-.124.101-.224.225-.224h32.282c.123 0 .224.101.224.224zM120.04 182.06c0-8.394-6.829-15.223-15.222-15.223H72.537c-8.394 0-15.223 6.829-15.223 15.223v32.282c0 8.394 6.83 15.223 15.223 15.223h32.282c8.394 0 15.222-6.829 15.222-15.223V182.06zm-14.998 32.281a.224.224 0 01-.224.224H72.537a.225.225 0 01-.225-.224V182.06c0-.124.101-.224.225-.224h32.282c.123 0 .224.101.224.224v32.281zm95.257-32.281c0-8.394-6.829-15.223-15.222-15.223h-32.282c-8.394 0-15.223 6.829-15.223 15.223v32.282c0 8.394 6.83 15.223 15.223 15.223h32.282c8.394 0 15.222-6.829 15.222-15.223zm-14.998 32.281a.224.224 0 01-.224.224h-32.282a.225.225 0 01-.225-.224V182.06c0-.124.101-.224.225-.224h32.282c.123 0 .224.101.224.224zm-80.483 35.444H72.537c-8.394 0-15.223 6.829-15.223 15.223v32.282c0 8.394 6.83 15.223 15.223 15.223h32.282c8.394 0 15.222-6.829 15.222-15.223v-32.282c-.001-8.394-6.829-15.223-15.223-15.223zm.224 47.505a.224.224 0 01-.224.224H72.537a.225.225 0 01-.225-.224v-32.282c0-.124.101-.224.225-.224h32.282c.123 0 .224.101.224.224v32.282zm80.035-47.505h-32.282c-8.394 0-15.223 6.829-15.223 15.223v32.282c0 8.394 6.83 15.223 15.223 15.223h32.282c8.394 0 15.222-6.829 15.222-15.223v-32.282c0-8.394-6.828-15.223-15.222-15.223zm.224 47.505a.224.224 0 01-.224.224h-32.282a.225.225 0 01-.225-.224v-32.282c0-.124.101-.224.225-.224h32.282c.123 0 .224.101.224.224z"></path>
    <path d="M488.134 464.311h-11.13V400.94c0-25.245-16.918-47.843-41.141-54.955l-45.42-13.334a15.76 15.76 0 00-4.369-2.907l-9.43-4.202a18.975 18.975 0 00-8.324-1.629v-21.145c14.925-10.878 25.322-27.679 27.575-47.043 7.393-1.827 12.891-8.517 12.891-16.466v-59.684c0-13.78-11.001-25.038-24.682-25.456-.739-13.385-11.862-24.049-25.429-24.049h-61.92c-5.705 0-11.18.992-16.274 2.797a15.3 15.3 0 00.075-1.475v-32.28c0-8.394-6.829-15.223-15.222-15.223h-32.282c-8.394 0-15.223 6.829-15.223 15.223v32.282c0 8.394 6.83 15.223 15.223 15.223h27.102c-5.051 5.715-8.793 12.61-10.738 20.221h-16.364c-8.394 0-15.223 6.829-15.223 15.223v32.282c0 8.394 6.83 15.223 15.223 15.223H247.9v9.694a16.88 16.88 0 003.671 10.527h-18.52c-8.394 0-15.223 6.829-15.223 15.223v32.282c0 8.394 6.83 15.222 15.223 15.222h32.282c8.394 0 15.222-6.829 15.222-15.222v-1.155a68.67 68.67 0 007.81 6.634v21.104a18.966 18.966 0 00-8.235 1.651l-9.249 4.153a15.737 15.737 0 00-4.339 2.901l-45.692 13.411c-24.225 7.11-41.144 29.708-41.144 54.955v5.092a7.5 7.5 0 0014.998 0v-5.092c0-18.635 12.488-35.316 30.37-40.564l37.414-10.981a15.816 15.816 0 003.693 5.806L291.8 380.86l.075.074a16.3 16.3 0 0011.402 4.649c.962 0 1.924-.089 2.876-.26l5.319 9.136-12.381 69.852h-57.454v-16.293a7.5 7.5 0 00-14.998 0v16.293h-31.932v-23.217a7.5 7.5 0 00-14.998 0v23.217h-31.212v-87.513h.942a7.5 7.5 0 000-14.998h-90.29a7.5 7.5 0 000 14.998h.942v87.513H32.932V71.603c0-6.246 5.082-11.327 11.327-11.327h249.353c6.246 0 11.326 5.081 11.326 11.327v30.41a7.5 7.5 0 0014.998 0v-30.41c0-13.376-10.03-24.446-22.962-26.103V18.449C296.975 8.276 288.698 0 278.525 0H59.345C49.172 0 40.897 8.276 40.897 18.449V45.5c-12.933 1.657-22.963 12.727-22.963 26.103v393.455C7.646 467.702.021 477.054.021 488.155.021 501.303 10.717 512 23.866 512h464.269c13.148 0 23.845-10.697 23.845-23.845s-10.697-23.844-23.846-23.844zM59.345 14.999h219.18a3.455 3.455 0 013.451 3.45v26.828H55.895V18.449a3.454 3.454 0 013.45-3.45zM462.006 400.94v63.371H430.05v-16.293a7.5 7.5 0 00-14.998 0v16.293h-57.423l-12.401-69.929 5.392-9.663c1.004.191 2.02.295 3.037.295 4.092 0 8.181-1.543 11.372-4.609l25.63-24.958a15.6 15.6 0 003.822-5.978l37.159 10.909c17.878 5.248 30.366 21.928 30.366 40.562zm-138.358-15.378l-4.722-8.111 10.056-8.4 8.939 7.644-4.948 8.866h-9.325zm46.892-46.32l9.432 4.203a.776.776 0 01.222 1.255l-25.593 24.923a1.347 1.347 0 01-1.81.053l-11.876-10.155 25.556-19.788a3.985 3.985 0 014.069-.491zm-11.864-194.173c5.773 0 10.469 4.696 10.469 10.469 0 7.481 6.086 13.568 13.568 13.568h.605c5.773 0 10.469 4.696 10.469 10.469v31.738h-4.917a5.01 5.01 0 01-5.004-5.003v-6.843c0-11.964-9.821-20.72-20.633-20.72-2.188 0-4.398.353-6.561 1.067-18.26 6.036-38.376 6.038-56.661-.004-13.407-4.43-27.191 5.533-27.191 19.654v6.846a5.01 5.01 0 01-5.004 5.003h-4.917v-32.389c0-18.667 15.187-33.855 33.856-33.855zm-125.847-13.676V99.112c0-.124.101-.224.225-.224h32.282c.123 0 .224.101.224.224v32.282a.224.224 0 01-.224.224h-32.282a.226.226 0 01-.225-.225zm0 82.948V182.06c0-.124.101-.224.225-.224h14.848v32.73h-14.848a.226.226 0 01-.225-.225zm32.73 82.949a.224.224 0 01-.224.224h-32.282a.224.224 0 01-.225-.224v-32.282c0-.124.101-.224.225-.224h29.43a67.274 67.274 0 003.075 9.169v23.337zm9.881-46.11c-.355-5.585-5.002-9.961-10.578-9.961a1.964 1.964 0 01-1.961-1.961v-12.946h4.917c11.029 0 20.002-8.973 20.002-20.002v-6.846c0-3.846 3.748-6.647 7.511-5.404 21.298 7.036 44.755 7.034 66.049-.005 3.686-1.217 7.489 1.517 7.489 5.412v6.843c0 11.029 8.973 20.002 20.002 20.002h4.917v12.946c0 1.081-.88 1.961-1.961 1.961-5.577 0-10.223 4.375-10.578 9.964-1.755 27.832-24.993 49.634-52.905 49.634-27.911 0-51.149-21.802-52.904-49.637zm52.905 64.635a67.59 67.59 0 0024.977-4.771v19.899l-24.365 18.867-25.591-19.122v-19.643a67.62 67.62 0 0024.979 4.77zm-51.547 28.791c-.406-.406-.221-1.046.229-1.247l9.248-4.152a4.003 4.003 0 014.028.444l26.644 19.91-12.806 10.696a1.345 1.345 0 01-1.782-.047zm48.826 55.954h5.466l11.306 63.751h-28.071zM75.09 376.798h58.407v87.513H75.09zm413.044 120.203H23.866c-4.878 0-8.846-3.968-8.846-8.846s3.968-8.845 8.846-8.845h464.269c4.878 0 8.846 3.968 8.846 8.845s-3.969 8.846-8.847 8.846z"></path>
  </symbol>
  <symbol xmlns="http://www.w3.org/2000/svg" viewBox="0 0 640 640" id="heart">
    <title></title>
    <path d="M550.08 132.96c-53.504-49.088-140.256-49.088-193.76 0L320 166.304l-36.352-33.344c-53.504-49.088-140.224-49.088-193.728 0-60.192 55.264-60.192 144.64 0 199.872L320 544l230.08-211.168c60.16-55.232 60.16-144.64 0-199.872z"></path>
  </symbol>
</svg>