<svg id="graphics" xmlns="http://www.w3.org/2000/svg" viewBox="0 0 382.53 266.72"><defs><style>.cls-1{fill:#9e8f70;}.cls-2{font-size:41px;fill:#282828;font-family:Lato-Black, Lato;font-weight:800;letter-spacing:0.09em;}</style></defs><title>logo</title><path class="cls-1" d="M271.26,189.21V91.31l-17.33,6.45V55.59L210.19,31.45v73.12l9.07-3.38V47.53l25.6,14.36v39.25l-8.26,3.07V67.28l-9.07-5.19v45.5l-34.67,12.9V160l-17.33-6.45v91.18H236.6V195.66l-9.07-3.37V235.1H184.6V166.64l25.59,9.53v39.58h-8.26v-33l-9.07-3.37v46h26.4V179.54L279.53,202V235.1h-25.6V211.78l8.26,3.08v10.57h9.07V208.56l-26.4-9.82v46H288.6V195.66Zm-9.07-3.37-25.59-9.53V133.23l8.26-3.07V170l9.07,3.37V117.11l-26.4,9.83v46l-25.6-9.52V126.79l8.26-3.08v33.35l9.07,3.37V120.34l42.93-16Z" transform="translate(-40.8 -31.45)"/><text class="cls-2" transform="translate(0 259.4)">MODERN HOMES</text></svg>