<?xml version="1.0" encoding="utf-8"?>
<!-- Generator: Adobe Illustrator 23.0.6, SVG Export Plug-In . SVG Version: 6.00 Build 0)  -->
<svg version="1.1" id="graphics" xmlns="http://www.w3.org/2000/svg" xmlns:xlink="http://www.w3.org/1999/xlink" x="0px" y="0px"
	 viewBox="0 0 747 269.1" style="enable-background:new 0 0 747 269.1;" xml:space="preserve">
<style type="text/css">
	.st0{fill:#9E8F70;}
	.st1{fill:#6F7070;}
	.st2{font-family:'Poppins-ExtraBold';}
	.st3{font-size:70.7922px;}
	.st4{letter-spacing:-1.9;}
</style>
<path class="st0" d="M373.3,141.5v-69L362,77.1V47.4l-28.6-17v51.5l5.9-2.4V41.7l16.8,10.1v27.7l-5.4,2.2v-26l-5.9-3.7V84l-22.7,9.1
	V121l-11.3-4.5v64.3h39.9v-34.6l-5.9-2.4v30.2h-28.1v-48.2l16.7,6.7v27.9H328V137l-5.9-2.4V167h17.3v-32.3l39.4,15.8v23.3H362v-16.4
	l5.4,2.2v7.4h5.9v-11.9l-17.2-6.9v32.4h28.6v-34.6L373.3,141.5z M367.4,139.1l-16.7-6.7v-30.4l5.4-2.2v28l5.9,2.4V90.7l-17.3,6.9
	v32.4l-16.8-6.7V97.5l5.4-2.2v23.5l5.9,2.4V93l28.1-11.3L367.4,139.1z"/>
<text transform="matrix(1.0395 0 0 1 50.771 252.5674)" class="st1 st2 st3 st4">MODERN HOMES</text>
</svg>
