<svg id="graphics" xmlns="http://www.w3.org/2000/svg" viewBox="0 0 581.85 265.83"><defs><style>.cls-1{fill:#9e8f70;}.cls-2{isolation:isolate;font-size:70.79px;fill:#6f7070;font-family:Poppins-ExtraBold, Poppins;font-weight:800;letter-spacing:-0.03em;}</style></defs><title>modern-homes-logo</title><path class="cls-1" d="M373.33,141.52v-69L362,77.07V47.35l-28.59-17V81.86l5.93-2.39V41.68L356.1,51.8V79.47l-5.41,2.16v-26l-5.93-3.65V84l-22.67,9.09V121l-11.34-4.55v64.26h39.94V146.06l-5.93-2.37v30.16H316.65V125.61l16.74,6.71v27.89H328V137l-5.88-2.36V167h17.26V134.7l39.42,15.81v23.34H362V157.42l5.41,2.17V167h5.93V155.15l-17.22-6.92v32.42h28.6V146.06Zm-5.93-2.38-16.74-6.72V102.07l5.44-2.17V128l5.93,2.37V90.74l-17.27,6.92v32.42L328,123.33V97.53l5.41-2.17v23.5l5.93,2.37V93l28.08-11.27Z" transform="translate(-50.77 -30.35)"/><text class="cls-2" transform="translate(0 222.22) scale(1.04 1)">MODERN HOMES</text></svg>