<?xml version="1.0" encoding="utf-8"?>
<!-- Generator: Adobe Illustrator 23.0.6, SVG Export Plug-In . SVG Version: 6.00 Build 0)  -->
<svg version="1.1" id="graphics" xmlns="http://www.w3.org/2000/svg" xmlns:xlink="http://www.w3.org/1999/xlink" x="0px" y="0px"
	 viewBox="0 0 524.1 222.6" style="enable-background:new 0 0 524.1 222.6;" xml:space="preserve">
<style type="text/css">
	.st0{fill:#FF9C65;}
	.st1{fill:#041549;}
</style>
<title>modern-homes-logo</title>
<path class="st0" d="M286,111.1v-69l-11.3,4.6V17L246.1,0v51.5l5.9-2.4V11.3l16.8,10.1v27.7l-5.4,2.2v-26l-5.9-3.7v32l-22.7,9.1
	v27.9l-11.3-4.5v64.3h39.9v-34.6l-5.9-2.4v30.2h-28.1V95.4l16.7,6.7V130h-5.4v-23.4l-5.9-2.4v32.4h17.3v-32.3l39.4,15.8v23.3h-16.8
	V127l5.4,2.2v7.4h5.9v-11.9l-17.2-6.9v32.4h28.6v-34.6L286,111.1z M280.1,108.7l-16.7-6.7V71.6l5.4-2.2v28l5.9,2.4V60.3l-17.3,6.9
	v32.4l-16.8-6.7V67.1l5.4-2.2v23.5l5.9,2.4V62.6L280,51.3L280.1,108.7z"/>
<g>
	<path class="st1" d="M0,177.1h15.8l11.8,29.3L39,177.1h15.7v45.1h-13v-24.9l-8.9,24.9H22L13,197.1v25.1H0L0,177.1z"/>
	<path class="st1" d="M83,222.6c-13.3,0-24.1-9.6-24.1-23.2s10.8-23.1,24.1-23.1s24,9.5,24,23.1S96.3,222.6,83,222.6z M83,211
		c6.7,0,10.8-4.5,10.8-11.5s-4-11.6-10.8-11.6s-10.8,4.5-10.8,11.6S76.2,211,83,211L83,211z"/>
	<path class="st1" d="M154.1,199.6c0,13-9.5,22.6-24.5,22.6h-18.6v-45.1h18.6C144.6,177.1,154.1,186.3,154.1,199.6z M128.7,211.1
		c7.5,0,12.2-4.1,12.2-11.5s-4.7-11.6-12.2-11.6h-4.5v23.2H128.7z"/>
	<path class="st1" d="M188.3,187.1h-17v7.4h15v9.5h-15v8.1h17v10h-30v-45.1h30V187.1z"/>
	<path class="st1" d="M213.6,177.1c11.6,0,17.5,6.4,17.5,14.5c0,5.9-3.3,11-10.3,13.1l10.5,17.6h-14.5l-9.3-16.6H206v16.6h-13v-45.1
		H213.6z M212.5,187.6H206v9.4h6.4c3.5,0,5.3-1.7,5.3-4.7C217.8,189.4,216,187.6,212.5,187.6L212.5,187.6z"/>
	<path class="st1" d="M278.7,177.1v45.1h-13L248.3,197v25.2h-13v-45.2h13l17.4,25.5v-25.5H278.7z"/>
	<path class="st1" d="M324.3,204.1h-15.9v18.1h-13v-45.1h13v17h15.9v-17h13v45.1h-13V204.1z"/>
	<path class="st1" d="M365.6,222.6c-13.3,0-24.1-9.6-24.1-23.2s10.8-23.1,24.1-23.1s24,9.5,24,23.1S378.9,222.6,365.6,222.6z
		 M365.6,211c6.7,0,10.8-4.5,10.8-11.5s-4.1-11.6-10.8-11.6s-10.8,4.5-10.8,11.6S358.8,211,365.6,211L365.6,211z"/>
	<path class="st1" d="M393.7,177.1h15.8l11.8,29.3l11.5-29.3h15.7v45.1h-13v-24.9l-8.9,24.9h-11l-8.9-25.1v25.1h-13L393.7,177.1z"/>
	<path class="st1" d="M484.2,187.1h-16.9v7.4h15v9.5h-15v8.1h17v10h-30v-45.1h30L484.2,187.1z"/>
	<path class="st1" d="M506.6,222.6c-10.4,0-18.6-4.8-19.1-14.5h13.9c0.3,3.4,2.3,4.6,4.7,4.6s4.1-1.2,4.1-3.3
		c-0.1-7.2-22.8-3.8-22.6-19.5c0-8.8,7.6-13.6,17.6-13.6c10.8,0,17.8,5.1,18.3,14h-14.2c0.1-2.2-1.7-4-3.9-4.1c-0.1,0-0.3,0-0.4,0
		c-1.7-0.2-3.2,1-3.4,2.6c0,0.2,0,0.4,0,0.6c0,6.7,22.6,4.5,22.6,19C524.1,216.4,517.7,222.6,506.6,222.6z"/>
</g>
</svg>
