<svg id="graphics" xmlns="http://www.w3.org/2000/svg" viewBox="0 0 524.1 222.61"><title>modern-homes-logo</title><path d="M289.76,111.1v-69l-11.3,4.6V17L249.86,0V51.5l5.9-2.4V11.3l16.8,10.1V49.1l-5.4,2.2v-26l-5.9-3.7v32l-22.7,9.1V90.6l-11.3-4.5v64.3h39.9V115.8l-5.9-2.4v30.2h-28.1V95.4l16.7,6.7V130h-5.4V106.6l-5.9-2.4v32.4h17.3V104.3l39.4,15.8v23.3h-16.8V127l5.4,2.2v7.4h5.9V124.7l-17.2-6.9v32.4h28.6V115.6Zm-5.9-2.4-16.7-6.7V71.6l5.4-2.2v28l5.9,2.4V60.3l-17.3,6.9V99.6l-16.8-6.7V67.1l5.4-2.2V88.4l5.9,2.4V62.6l28.1-11.3Z" transform="translate(-3.73)" fill="#9e8f70"/><g style="isolation:isolate"><path d="M3.73,177.05H19.49l11.78,29.31,11.51-29.31h15.7v45.12h-13v-24.9l-8.85,24.9H25.68l-8.91-25.09v25.09h-13Z" transform="translate(-3.73)" fill="#6f7070"/><path d="M86.69,222.61c-13.31,0-24.09-9.59-24.09-23.16s10.78-23.1,24.09-23.1,24,9.53,24,23.1S100,222.61,86.69,222.61Zm0-11.64c6.72,0,10.77-4.54,10.77-11.52s-4-11.58-10.77-11.58-10.78,4.48-10.78,11.58S79.9,211,86.69,211Z" transform="translate(-3.73)" fill="#6f7070"/><path d="M157.87,199.58c0,13-9.51,22.59-24.48,22.59H114.83V177.05h18.56C148.36,177.05,157.87,186.33,157.87,199.58ZM132.39,211.1c7.52,0,12.24-4.1,12.24-11.52s-4.72-11.65-12.24-11.65h-4.52V211.1Z" transform="translate(-3.73)" fill="#6f7070"/><path d="M192,187.1H175v7.36h15V204H175v8.13h17v10H162V177.05h30Z" transform="translate(-3.73)" fill="#6f7070"/><path d="M217.28,177.05c11.64,0,17.49,6.4,17.49,14.46,0,5.89-3.32,11-10.31,13.06L235,222.17H220.47l-9.31-16.64h-1.4v16.64h-13V177.05Zm-1.07,10.5h-6.45V197h6.45c3.53,0,5.33-1.66,5.33-4.73C221.54,189.4,219.74,187.55,216.21,187.55Z" transform="translate(-3.73)" fill="#6f7070"/><path d="M282.41,177.05v45.12h-13L252,197v25.22H239V177.05h13l17.37,25.54V177.05Z" transform="translate(-3.73)" fill="#6f7070"/><path d="M328.05,204.06h-15.9v18.11h-13V177.05h13v17h15.9v-17h13v45.12h-13Z" transform="translate(-3.73)" fill="#6f7070"/><path d="M369.29,222.61c-13.3,0-24.08-9.59-24.08-23.16s10.78-23.1,24.08-23.1,24,9.53,24,23.1S382.6,222.61,369.29,222.61Zm0-11.64c6.72,0,10.78-4.54,10.78-11.52s-4.06-11.58-10.78-11.58-10.77,4.48-10.77,11.58S362.51,211,369.29,211Z" transform="translate(-3.73)" fill="#6f7070"/><path d="M397.43,177.05H413.2L425,206.36l11.5-29.31h15.71v45.12h-13v-24.9l-8.85,24.9H419.39l-8.92-25.09v25.09h-13Z" transform="translate(-3.73)" fill="#6f7070"/><path d="M487.91,187.1H471v7.36h15V204H471v8.13h17v10h-30V177.05h30Z" transform="translate(-3.73)" fill="#6f7070"/><path d="M510.33,222.61c-10.44,0-18.56-4.79-19.09-14.46h13.9c.27,3.39,2.33,4.55,4.72,4.55s4.13-1.16,4.13-3.27c-.07-7.23-22.82-3.84-22.62-19.52,0-8.83,7.65-13.56,17.56-13.56,10.78,0,17.83,5.05,18.3,14H513.06a4,4,0,0,0-4.33-4.09,3.06,3.06,0,0,0-3.46,3.2c0,6.72,22.56,4.54,22.56,19C527.83,216.41,521.44,222.61,510.33,222.61Z" transform="translate(-3.73)" fill="#6f7070"/></g></svg>